<svg width="17" height="21" viewBox="0 0 17 21" fill="none" xmlns="http://www.w3.org/2000/svg">
<path d="M16.6667 21H0.666687V19C0.666687 17.6739 1.19347 16.4021 2.13115 15.4645C3.06884 14.5268 4.3406 14 5.66669 14H11.6667C12.9928 14 14.2645 14.5268 15.2022 15.4645C16.1399 16.4021 16.6667 17.6739 16.6667 19V21ZM8.66669 12C7.87876 12 7.09854 11.8448 6.37059 11.5433C5.64263 11.2417 4.9812 10.7998 4.42405 10.2426C3.86689 9.68549 3.42494 9.02405 3.12341 8.2961C2.82188 7.56815 2.66669 6.78793 2.66669 6C2.66669 5.21207 2.82188 4.43185 3.12341 3.7039C3.42494 2.97595 3.86689 2.31451 4.42405 1.75736C4.9812 1.20021 5.64263 0.758251 6.37059 0.456723C7.09854 0.155195 7.87876 -1.17411e-08 8.66669 0C10.258 2.37122e-08 11.7841 0.632141 12.9093 1.75736C14.0345 2.88258 14.6667 4.4087 14.6667 6C14.6667 7.5913 14.0345 9.11742 12.9093 10.2426C11.7841 11.3679 10.258 12 8.66669 12Z" fill="#0080B8"/>
</svg>
