<svg width="23" height="20" viewBox="0 0 23 20" fill="none" xmlns="http://www.w3.org/2000/svg">
<path d="M8.79485 18.1818C8.79485 18.6742 8.62738 19.1004 8.29245 19.4602C7.95751 19.8201 7.56088 20 7.10254 20C6.64421 20 6.24758 19.8201 5.91264 19.4602C5.5777 19.1004 5.41024 18.6742 5.41024 18.1818C5.41024 17.6894 5.5777 17.2633 5.91264 16.9034C6.24758 16.5436 6.64421 16.3636 7.10254 16.3636C7.56088 16.3636 7.95751 16.5436 8.29245 16.9034C8.62738 17.2633 8.79485 17.6894 8.79485 18.1818ZM20.641 18.1818C20.641 18.6742 20.4735 19.1004 20.1386 19.4602C19.8037 19.8201 19.407 20 18.9487 20C18.4904 20 18.0937 19.8201 17.7588 19.4602C17.4239 19.1004 17.2564 18.6742 17.2564 18.1818C17.2564 17.6894 17.4239 17.2633 17.7588 16.9034C18.0937 16.5436 18.4904 16.3636 18.9487 16.3636C19.407 16.3636 19.8037 16.5436 20.1386 16.9034C20.4735 17.2633 20.641 17.6894 20.641 18.1818ZM22.3333 2.72727V10C22.3333 10.2273 22.2606 10.4285 22.1152 10.6037C21.9697 10.7789 21.7912 10.8807 21.5797 10.9091L7.77682 12.642C7.89141 13.2102 7.9487 13.5417 7.9487 13.6364C7.9487 13.7879 7.84293 14.0909 7.63139 14.5455H19.7949C20.024 14.5455 20.2223 14.6354 20.3898 14.8153C20.5573 14.9953 20.641 15.2083 20.641 15.4545C20.641 15.7008 20.5573 15.9138 20.3898 16.0938C20.2223 16.2737 20.024 16.3636 19.7949 16.3636H6.25639C6.02722 16.3636 5.82891 16.2737 5.66144 16.0938C5.49397 15.9138 5.41024 15.7008 5.41024 15.4545C5.41024 15.3504 5.44549 15.2012 5.51601 15.0071C5.58652 14.813 5.65703 14.6425 5.72754 14.4957C5.79806 14.349 5.89281 14.1596 6.0118 13.9276C6.13079 13.6955 6.1991 13.5559 6.21673 13.5085L3.87658 1.81818H1.17947C0.9503 1.81818 0.751983 1.72822 0.584515 1.5483C0.417047 1.36837 0.333313 1.1553 0.333313 0.909091C0.333313 0.662879 0.417047 0.449811 0.584515 0.269886C0.751983 0.0899621 0.9503 0 1.17947 0H4.56408C4.70511 0 4.83071 0.0307765 4.94089 0.0923295C5.05106 0.153883 5.137 0.227273 5.1987 0.3125C5.2604 0.397727 5.31769 0.513731 5.37057 0.660511C5.42346 0.807292 5.45871 0.930398 5.47634 1.02983C5.49397 1.12926 5.51821 1.26894 5.54906 1.44886C5.57991 1.62879 5.59974 1.75189 5.60855 1.81818H21.4872C21.7163 1.81818 21.9146 1.90814 22.0821 2.08807C22.2496 2.26799 22.3333 2.48106 22.3333 2.72727Z" fill="#0080B8"/>
</svg>
