<svg width="336" height="162" viewBox="0 0 336 162" fill="none" xmlns="http://www.w3.org/2000/svg">
<g filter="url(#filter0_d_114_264)">
<path d="M28.6071 5.3501L7.86267 34.3923C6.65123 36.0883 6 38.1204 6 40.2046V143.5C6 147.918 9.58173 151.5 14 151.5H298.414C300.98 151.5 303.391 150.269 304.895 148.19L328.101 116.124C329.335 114.418 330 112.367 330 110.261V10C330 5.58172 326.418 2 322 2H35.1169C32.5333 2 30.1088 3.24773 28.6071 5.3501Z" fill="#5899B5"/>
<path d="M28.6071 5.3501L7.86267 34.3923C6.65123 36.0883 6 38.1204 6 40.2046V143.5C6 147.918 9.58173 151.5 14 151.5H298.414C300.98 151.5 303.391 150.269 304.895 148.19L328.101 116.124C329.335 114.418 330 112.367 330 110.261V10C330 5.58172 326.418 2 322 2H35.1169C32.5333 2 30.1088 3.24773 28.6071 5.3501Z" stroke="#2F2C2F" stroke-width="4"/>
</g>
<defs>
<filter id="filter0_d_114_264" x="0" y="0" width="336" height="161.5" filterUnits="userSpaceOnUse" color-interpolation-filters="sRGB">
<feFlood flood-opacity="0" result="BackgroundImageFix"/>
<feColorMatrix in="SourceAlpha" type="matrix" values="0 0 0 0 0 0 0 0 0 0 0 0 0 0 0 0 0 0 127 0" result="hardAlpha"/>
<feOffset dy="4"/>
<feGaussianBlur stdDeviation="2"/>
<feComposite in2="hardAlpha" operator="out"/>
<feColorMatrix type="matrix" values="0 0 0 0 0 0 0 0 0 0 0 0 0 0 0 0 0 0 0.25 0"/>
<feBlend mode="normal" in2="BackgroundImageFix" result="effect1_dropShadow_114_264"/>
<feBlend mode="normal" in="SourceGraphic" in2="effect1_dropShadow_114_264" result="shape"/>
</filter>
</defs>
</svg>
