<svg width="15" height="18" viewBox="0 0 15 18" fill="none" xmlns="http://www.w3.org/2000/svg">
<path d="M14.7438 0.095625C14.8226 0.146967 14.8871 0.216415 14.9318 0.297839C14.9765 0.379263 14.9999 0.470158 15 0.5625V9C15 9.11234 14.9654 9.22209 14.9009 9.31512C14.8363 9.40816 14.7446 9.48021 14.6377 9.522L14.4231 9L14.6377 9.522L14.6342 9.52312L14.6273 9.5265L14.6008 9.53662C14.4491 9.59541 14.2964 9.65167 14.1427 9.70537C13.8381 9.81225 13.4146 9.95625 12.9346 10.0991C11.9931 10.3826 10.7665 10.6875 9.80769 10.6875C8.83038 10.6875 8.02154 10.3725 7.31769 10.0969L7.28538 10.0856C6.55385 9.79875 5.93077 9.5625 5.19231 9.5625C4.38462 9.5625 3.30231 9.82125 2.38038 10.0991C1.9676 10.2246 1.55859 10.3615 1.15385 10.5098V17.4375C1.15385 17.5867 1.09306 17.7298 0.984869 17.8352C0.876675 17.9407 0.729933 18 0.576923 18C0.423914 18 0.277171 17.9407 0.168977 17.8352C0.0607829 17.7298 0 17.5867 0 17.4375V0.5625C0 0.413316 0.0607829 0.270242 0.168977 0.164752C0.277171 0.0592632 0.423914 0 0.576923 0C0.729933 0 0.876675 0.0592632 0.984869 0.164752C1.09306 0.270242 1.15385 0.413316 1.15385 0.5625V0.87975C1.41462 0.790875 1.72615 0.6885 2.06538 0.58725C3.00692 0.306 4.23462 0 5.19231 0C6.16154 0 6.95077 0.311625 7.63962 0.583875L7.68923 0.604125C8.40692 0.8865 9.03231 1.125 9.80769 1.125C10.6154 1.125 11.6977 0.86625 12.6196 0.588375C13.145 0.428414 13.6642 0.249795 14.1762 0.052875L14.1981 0.045L14.2027 0.04275H14.2038" fill="#E23C3C"/>
</svg>
