<svg xmlns="http://www.w3.org/2000/svg" width="37.51" height="34.831" viewBox="0 0 37.51 34.831">
  <path id="noun-bag-4552243" d="M138.491,57.859h-4.019v-1.34a4.018,4.018,0,0,0-4.019-4.019h-13.4a4.018,4.018,0,0,0-4.019,4.019v1.34h-4.019A4.018,4.018,0,0,0,105,61.877V83.312a4.018,4.018,0,0,0,4.019,4.019h29.472a4.018,4.018,0,0,0,4.019-4.019V61.877a4.018,4.018,0,0,0-4.019-4.019Zm-22.774-1.34a1.339,1.339,0,0,1,1.34-1.34h13.4a1.339,1.339,0,0,1,1.34,1.34v1.34H115.717Zm24.113,26.793a1.34,1.34,0,0,1-1.34,1.34H109.019a1.339,1.339,0,0,1-1.34-1.34v-5.6a4.023,4.023,0,0,0,1.34.241h10.717a4.019,4.019,0,0,0,8.038,0h10.717a4.024,4.024,0,0,0,1.34-.241Zm-17.415-5.359V75.274a1.34,1.34,0,1,1,2.679,0v2.679a1.34,1.34,0,1,1-2.679,0Zm17.415-4.019a1.339,1.339,0,0,1-1.34,1.34H127.774a4.019,4.019,0,0,0-8.038,0H109.019a1.339,1.339,0,0,1-1.34-1.34V61.877a1.339,1.339,0,0,1,1.34-1.34h29.472a1.34,1.34,0,0,1,1.34,1.34Z" transform="translate(-105 -52.5)" fill="currentColor" opacity="0.597"/>
</svg>
