<svg xmlns="http://www.w3.org/2000/svg" width="35.636" height="36.535" viewBox="0 0 35.636 36.535">
  <g id="Group_1376" data-name="Group 1376" opacity="0.598">
    <path id="Path_842" data-name="Path 842" d="M14.57,0a2.862,2.862,0,0,0-2.842,2.842V6.406c-.388.2-.763.424-1.129.66L7.5,5.277a2.861,2.861,0,0,0-3.882,1.04L.375,11.95a2.86,2.86,0,0,0,1.04,3.882l3.057,1.751c-.015.229-.051.443-.051.685s.027.449.038.672L1.416,20.7a2.86,2.86,0,0,0-1.04,3.882l3.248,5.633A2.861,2.861,0,0,0,7.5,31.257l3.108-1.789c.36.232.733.449,1.116.647v3.577a2.862,2.862,0,0,0,2.842,2.842h6.5a2.862,2.862,0,0,0,2.842-2.842V30.128c.388-.2.763-.424,1.129-.66l3.1,1.789a2.861,2.861,0,0,0,3.882-1.04l3.248-5.633A2.86,2.86,0,0,0,34.22,20.7l-3.057-1.751c.015-.229.051-.443.051-.685s-.027-.449-.038-.672l3.045-1.764a2.86,2.86,0,0,0,1.04-3.882L32.013,6.317a2.861,2.861,0,0,0-3.882-1.04L25.023,7.066c-.36-.232-.733-.449-1.116-.647V2.842A2.862,2.862,0,0,0,21.066,0a1.218,1.218,0,1,0,0,2.436.381.381,0,0,1,.406.406V7.1a1.217,1.217,0,0,0,.736,1.116,10.878,10.878,0,0,1,2.106,1.218,1.218,1.218,0,0,0,1.332.076l3.7-2.131a.387.387,0,0,1,.558.152l3.248,5.632a.388.388,0,0,1-.152.558l-3.692,2.131a1.219,1.219,0,0,0-.6,1.192,10.662,10.662,0,0,1-.013,2.436,1.218,1.218,0,0,0,.6,1.192L33,22.809a.388.388,0,0,1,.152.558L29.907,29a.387.387,0,0,1-.558.152l-3.692-2.131a1.218,1.218,0,0,0-1.332.076,10.88,10.88,0,0,1-2.118,1.218,1.217,1.217,0,0,0-.736,1.116v4.262a.381.381,0,0,1-.406.406h-6.5a.381.381,0,0,1-.406-.406V29.431a1.217,1.217,0,0,0-.736-1.116A10.878,10.878,0,0,1,11.323,27.1a1.218,1.218,0,0,0-1.332-.076l-3.7,2.131A.387.387,0,0,1,5.729,29L2.481,23.367a.388.388,0,0,1,.152-.558l3.692-2.131a1.219,1.219,0,0,0,.6-1.192,10.659,10.659,0,0,1,.013-2.436,1.218,1.218,0,0,0-.6-1.192l-3.7-2.131a.388.388,0,0,1-.152-.558L5.729,7.535a.387.387,0,0,1,.558-.152L9.978,9.514a1.218,1.218,0,0,0,1.332-.076A10.88,10.88,0,0,1,13.429,8.22,1.217,1.217,0,0,0,14.165,7.1V2.842a.381.381,0,0,1,.406-.406h2.436a1.218,1.218,0,1,0,0-2.436Zm3.248,11.772a6.5,6.5,0,1,0,6.5,6.5A6.514,6.514,0,0,0,17.818,11.772Zm0,2.436a4.059,4.059,0,1,1-4.059,4.059A4.041,4.041,0,0,1,17.818,14.208Z" transform="translate(0 0)" fill="currentColor"/>
  </g>
</svg>
