<svg xmlns="http://www.w3.org/2000/svg" width="88.346" height="35.331" viewBox="0 0 88.346 35.331">
  <g id="Group_1446" data-name="Group 1446" transform="translate(-310 -37.835)">
    <path id="Path_937" data-name="Path 937" d="M220.961,71.189a.884.884,0,0,0,.32.04,1.262,1.262,0,0,0,1.081-.641l12.011-22.82a1.1,1.1,0,0,0-.04-1.161,1.162,1.162,0,0,0-1.041-.6h-4.524l2.082-8.127a1.343,1.343,0,0,0-.2-1.041,1.218,1.218,0,0,0-.961-.441H219.68a1.2,1.2,0,0,0-1.2,1l-3.2,18.016a1.152,1.152,0,0,0,.28,1,1.2,1.2,0,0,0,.921.44H220.8l-.72,13.091a1.2,1.2,0,0,0,.881,1.241Zm-3.043-16.775L220.681,38.8h7.447l-2,7.927a1.112,1.112,0,0,0-.04.361v.12a1.18,1.18,0,0,0,1.2,1.2h4L222.8,64.583l.481-8.888a1.2,1.2,0,0,0-.32-.881,1.242,1.242,0,0,0-.881-.36h-4.164Z" transform="translate(163.562 1.687)" fill="#fff" stroke="#fff" stroke-width="0.5"/>
    <text id="Auto" transform="translate(310 44)" fill="#fff" font-size="16" font-family="Poppins-SemiBold, Poppins" font-weight="600"><tspan x="-38" y="17">Auto</tspan></text>
  </g>
</svg>
