<svg xmlns="http://www.w3.org/2000/svg" width="31" height="31" viewBox="0 0 31 31">
  <g id="Group_1425" data-name="Group 1425" transform="translate(-53 -516)">
    <circle id="Ellipse_169" data-name="Ellipse 169" cx="15.5" cy="15.5" r="15.5" transform="translate(53 516)" fill="#1d1d1d" opacity="0.248"/>
    <path id="Path_1082" data-name="Path 1082" d="M13.368,7.311a1.556,1.556,0,0,1-1.121-.429A1.418,1.418,0,0,1,11.8,5.815a1.418,1.418,0,0,1,.447-1.067,1.682,1.682,0,0,1,2.243,0,1.418,1.418,0,0,1,.447,1.067,1.418,1.418,0,0,1-.447,1.067A1.556,1.556,0,0,1,13.368,7.311Zm1.258,2.115v10.1H12.074V9.426Z" transform="translate(55.132 519.576)" fill="#fff" stroke="#fff" stroke-linecap="round" stroke-linejoin="round" stroke-width="1"/>
  </g>
</svg>
