<svg xmlns="http://www.w3.org/2000/svg" width="58" height="65.168" viewBox="0 0 58 65.168">
  <g id="Group_1380" data-name="Group 1380" transform="translate(-52.628 -842.07)">
    <g id="Group_1333" data-name="Group 1333" transform="translate(-5313.698 831.07)">
      <path id="Path_973" data-name="Path 973" d="M245.842,180.548a1.568,1.568,0,1,0,0,3.137A7.842,7.842,0,1,0,238,175.842a1.568,1.568,0,0,0,3.137,0,4.705,4.705,0,1,1,4.705,4.705Z" transform="translate(5149.484 -146.021)" fill="#fff"/>
      <path id="Path_974" data-name="Path 974" d="M138.11,37.863V22.179a6.274,6.274,0,0,0-6.274-6.274h-2.3L127.8,13.294a4.706,4.706,0,0,0-3.913-2.094h-6.054a4.705,4.705,0,0,0-3.921,2.094l-1.733,2.611h-2.3a6.274,6.274,0,0,0-6.274,6.274V37.863a6.274,6.274,0,0,0,6.274,6.274h4.055l-2.027,2.027h0a1.569,1.569,0,0,0,2.219,2.219l4.705-4.705a1.568,1.568,0,0,0,0-2.219l-4.705-4.705a1.569,1.569,0,1,0-2.219,2.219L113.933,41h-4.055a3.137,3.137,0,0,1-3.137-3.137V22.179a3.137,3.137,0,0,1,3.137-3.137h3.137a1.568,1.568,0,0,0,1.306-.7l2.223-3.309a1.569,1.569,0,0,1,1.286-.7h6.054a1.568,1.568,0,0,1,1.306.7l2.2,3.31h0a1.568,1.568,0,0,0,1.306.7h3.137a3.137,3.137,0,0,1,3.137,3.137V37.863A3.137,3.137,0,0,1,131.837,41h-7.8a1.568,1.568,0,0,0,0,3.137h7.8a6.274,6.274,0,0,0,6.274-6.274Z" transform="translate(5274.469 -0.2)" fill="#fff"/>
    </g>
    <text id="Retake" transform="translate(52.628 884.238)" fill="#fff" font-size="16" font-family="Poppins-SemiBold, Poppins" font-weight="600"><tspan x="0" y="17">Retake</tspan></text>
  </g>
</svg>
