<svg xmlns="http://www.w3.org/2000/svg" width="36.935" height="36.935" viewBox="0 0 36.935 36.935">
  <g id="Group_1375" data-name="Group 1375" transform="translate(0.2 0.2)" opacity="0.598">
    <path id="Path_890" data-name="Path 890" d="M107.517,19.25a18.267,18.267,0,1,0,18.267,18.267A18.313,18.313,0,0,0,107.517,19.25Zm-9.44,30.936a11.125,11.125,0,0,1,9.522-5.517A10.981,10.981,0,0,1,117.08,50.1a15.756,15.756,0,0,1-19,.082Zm20.842-1.716a13.283,13.283,0,0,0-11.32-6.212,13.524,13.524,0,0,0-11.361,6.293,15.794,15.794,0,1,1,22.681-.082Z" transform="translate(-89.25 -19.25)" fill="currentColor" stroke="#fff" stroke-width="0.4"/>
    <path id="Path_891" data-name="Path 891" d="M263.748,126.58a6.5,6.5,0,1,0,6.5,6.5A6.514,6.514,0,0,0,263.748,126.58Zm0,10.5a4.046,4.046,0,1,1,4.046-4.046A4.055,4.055,0,0,1,263.748,137.083Z" transform="translate(-245.48 -119.061)" fill="#fff" stroke="#fff" stroke-width="0.4"/>
  </g>
</svg>
