<svg width="40" height="34" viewBox="0 0 40 34" fill="none" xmlns="http://www.w3.org/2000/svg">
<path d="M23.3406 33.4833C22.6904 33.4833 22.0402 33.3499 21.4067 33.0999C19.5228 32.3163 18.3391 30.5657 18.3224 28.5151V25.0807H6.61874C2.96759 25.0807 0 22.0797 0 18.3953V15.0942C0 11.4097 2.96759 8.4088 6.61874 8.4088H18.3391V4.9744C18.3391 2.92375 19.5228 1.17321 21.4234 0.38963C23.3073 -0.393948 25.3913 0.0228487 26.8251 1.4733L38.0285 12.0266L38.0619 12.0599C40.646 14.6441 40.646 18.8454 38.0619 21.4295L26.775 32.0495C25.8414 32.9832 24.6077 33.4833 23.3406 33.4833Z" fill="#2F2C2F"/>
</svg>
