<svg width="36" height="26" viewBox="0 0 36 26" fill="none" xmlns="http://www.w3.org/2000/svg">
<path d="M33.4366 10.4025H2.22911C0.998013 10.4025 0 11.4005 0 12.6316C0 13.8627 0.998013 14.8607 2.22911 14.8607H33.4366C34.6677 14.8607 35.6657 13.8627 35.6657 12.6316C35.6657 11.4005 34.6677 10.4025 33.4366 10.4025Z" fill="#2F2C2F"/>
<path d="M2.22911 4.45821H33.4366C34.6677 4.45821 35.6657 3.4602 35.6657 2.22911C35.6657 0.998013 34.6677 0 33.4366 0H2.22911C0.998013 0 0 0.998013 0 2.22911C0 3.4602 0.998013 4.45821 2.22911 4.45821Z" fill="#2F2C2F"/>
<path d="M33.4366 20.8049H2.22911C0.998013 20.8049 0 21.8029 0 23.034C0 24.2651 0.998013 25.2631 2.22911 25.2631H33.4366C34.6677 25.2631 35.6657 24.2651 35.6657 23.034C35.6657 21.8029 34.6677 20.8049 33.4366 20.8049Z" fill="#2F2C2F"/>
</svg>
