<svg width="40" height="26" viewBox="0 0 40 26" fill="none" xmlns="http://www.w3.org/2000/svg">
<path d="M16.8507 13.2899C17.7591 13.936 18.989 14.2988 20.2711 14.2988C21.5532 14.2988 22.783 13.936 23.6914 13.2899L39.2603 2.17086C38.9019 1.53086 38.2834 0.982098 37.4846 0.595215C36.6857 0.208333 35.743 0.00103399 34.7778 0H5.76442C4.79918 0.00103399 3.85646 0.208333 3.05759 0.595215C2.25873 0.982098 1.64029 1.53086 1.28186 2.17086L16.8507 13.2899Z" fill="#2F2C2F"/>
<path d="M25.9706 14.9175C24.4577 15.9952 22.408 16.6004 20.2711 16.6004C18.1342 16.6004 16.0845 15.9952 14.5716 14.9175L0.928894 5.17969V25.3229H39.6133V5.17969L25.9706 14.9175Z" fill="#2F2C2F"/>
</svg>
