<svg width="46" height="44" viewBox="0 0 46 44" fill="none" xmlns="http://www.w3.org/2000/svg">
<path d="M25.4316 1.32312C24.6545 0.627904 23.6486 0.243167 22.6058 0.242326C21.5631 0.241486 20.5565 0.624602 19.7782 1.31857L1.57212 17.3798C0.919014 17.9532 0.456243 18.712 0.245539 19.5552C0.0348345 20.3983 0.0862138 21.2856 0.392823 22.0988C0.699433 22.912 1.2467 23.6124 1.96162 24.1065C2.67654 24.6007 3.52513 24.8651 4.3942 24.8645H4.72074C4.82347 24.8657 4.92164 24.9071 4.99428 24.9797C5.06692 25.0524 5.10827 25.1505 5.10948 25.2533V40.8028C5.11036 41.5242 5.39733 42.2158 5.90746 42.7259C6.41758 43.2361 7.10921 43.523 7.83064 43.5239H14.8279C15.5493 43.523 16.241 43.2361 16.7511 42.7259C17.2612 42.2158 17.5482 41.5242 17.5491 40.8028V33.028C17.5491 31.6877 18.0815 30.4023 19.0292 29.4546C19.977 28.5068 21.2624 27.9744 22.6027 27.9744C23.943 27.9744 25.2284 28.5068 26.1761 29.4546C27.1238 30.4023 27.6563 31.6877 27.6563 33.028V40.8028C27.6571 41.5242 27.9441 42.2158 28.4542 42.7259C28.9644 43.2361 29.656 43.523 30.3774 43.5239H37.3747C38.0961 43.523 38.7877 43.2361 39.2979 42.7259C39.808 42.2158 40.095 41.5242 40.0959 40.8028V25.2533C40.0971 25.1505 40.1384 25.0524 40.2111 24.9797C40.2837 24.9071 40.3819 24.8657 40.4846 24.8645H40.8111C41.68 24.8651 42.5285 24.6008 43.2433 24.1069C43.9581 23.613 44.5054 22.9129 44.8122 22.0999C45.1189 21.287 45.1706 20.3998 44.9602 19.5568C44.7499 18.7138 44.2875 17.9549 43.6348 17.3813L25.4316 1.32312Z" fill="#2F2C2F"/>
</svg>
