<svg width="36" height="36" viewBox="0 0 36 36" fill="none" xmlns="http://www.w3.org/2000/svg">
<path d="M28.5169 4.97075C25.4938 1.90455 21.2961 0 16.6603 0C7.47384 0 0 7.47357 0 16.66C0 21.2958 1.90507 25.4935 4.97101 28.5166C8.52578 32.1261 12.1591 35.9997 19.3397 35.9997C28.5259 35.9997 36 28.5259 36 19.3394C36 12.1691 32.1309 8.52604 28.5169 4.97075Z" fill="#2F2C2F"/>
<path d="M31.4218 16.6601C31.4218 24.8128 24.8127 31.4217 16.6605 31.4217C8.50773 31.4217 1.89893 24.8128 1.89893 16.6601C1.89893 8.50761 8.50773 1.8988 16.6605 1.8988C24.8124 1.8988 31.4218 8.50761 31.4218 16.6601Z" fill="#EE6B6C"/>
<path fill-rule="evenodd" clip-rule="evenodd" d="M17.3295 10.752C17.4975 10.26 17.5635 9.762 17.5275 9.258C17.5275 9.174 17.4615 9.114 17.3295 9.078C17.2095 9.042 17.0655 9.018 16.8975 9.006C16.7295 8.994 16.5615 9 16.3935 9.024C16.2255 9.036 16.0995 9.048 16.0155 9.06C15.8235 9.108 15.6735 9.204 15.5655 9.348C15.4575 9.48 15.3795 9.636 15.3315 9.816C15.2835 9.984 15.2475 10.164 15.2235 10.356C15.2115 10.548 15.1995 10.722 15.1875 10.878C15.1875 10.998 15.1995 11.082 15.2235 11.13C15.2595 11.19 15.3135 11.226 15.3855 11.238C15.4575 11.25 15.5295 11.25 15.6015 11.238C15.8415 11.226 16.0755 11.208 16.3035 11.184C16.5435 11.16 16.7835 11.112 17.0235 11.04C17.1195 11.016 17.1855 10.992 17.2215 10.968C17.2695 10.92 17.3055 10.848 17.3295 10.752ZM15.987 13.374C15.855 13.434 15.753 13.536 15.681 13.68V13.716C15.501 14.1 15.381 14.484 15.321 14.868C15.273 15.252 15.249 15.648 15.249 16.056C15.249 17.064 15.273 18.06 15.321 19.044C15.381 20.028 15.441 21.024 15.501 22.032C15.525 22.416 15.555 22.806 15.591 23.202C15.639 23.598 15.717 23.988 15.825 24.372C15.849 24.432 15.867 24.492 15.879 24.552C15.903 24.612 15.945 24.66 16.005 24.696C16.077 24.732 16.149 24.75 16.221 24.75C16.449 24.786 16.659 24.81 16.851 24.822C17.043 24.834 17.253 24.816 17.481 24.768L17.661 24.732C17.733 24.708 17.793 24.666 17.841 24.606C17.889 24.558 17.919 24.504 17.931 24.444C17.943 24.372 17.955 24.306 17.967 24.246C17.991 24.042 18.009 23.844 18.021 23.652C18.033 23.448 18.039 23.244 18.039 23.04C18.087 21.648 18.117 20.262 18.129 18.882C18.153 17.49 18.129 16.098 18.057 14.706L17.985 14.166C17.973 13.986 17.937 13.812 17.877 13.644C17.829 13.524 17.781 13.44 17.733 13.392C17.685 13.356 17.631 13.332 17.571 13.32L17.391 13.284C17.247 13.272 17.091 13.26 16.923 13.248C16.767 13.236 16.605 13.242 16.437 13.266C16.281 13.278 16.131 13.314 15.987 13.374Z" fill="#2F2C2F"/>
</svg>
