<svg width="316" height="316" viewBox="0 0 316 316" fill="none" xmlns="http://www.w3.org/2000/svg">
<circle cx="158" cy="158" r="155.192" fill="#5899B5" stroke="#2F2C2F" stroke-width="5"/>
<path d="M258.651 215.853C258.439 214.762 257.997 213.783 257.348 212.935C257.028 212.513 250.949 206.441 250.547 206.09C249.422 205.107 248.235 204.772 247.518 204.569L247.416 204.539L247.309 204.52C245.818 204.178 244.074 203.812 242.222 203.812C239.631 203.812 237.507 204.549 235.913 205.998C234.531 207.195 233.911 208.684 233.541 209.935C233.276 209.869 233.005 209.818 232.726 209.794C232.045 209.654 227.9 208.839 227.9 208.839L227.372 208.781C226.987 208.737 226.509 208.684 225.961 208.684C225.186 208.684 224.483 208.79 223.804 209.018L223.649 209.072L223.501 209.132C220.906 210.216 219.866 212.567 219.499 213.439C219.054 214.408 218.651 215.387 218.268 216.369L212.415 210.526C212.141 210.225 211.841 209.96 211.506 209.74L211.278 209.585L211.031 209.464C210.263 209.081 209.434 208.887 208.564 208.887C208.225 208.887 207.88 208.924 207.517 208.975C207.037 209.045 206.555 209.106 206.073 209.188C206.041 209.155 199.034 202.165 199.034 202.165C198.38 201.585 197.02 200.378 194.952 200.249L194.686 200.232L194.414 200.247C192.432 200.365 191.123 201.478 190.594 201.932C188.668 203.585 186.964 205.16 185.536 206.828L179.621 200.918C179.402 200.686 179.18 200.453 178.932 200.238C178.675 200.007 178.391 199.804 178.098 199.617C178.806 193.686 176.984 187.385 171.937 182.452C170.197 180.688 168.604 179.003 167.039 177.462C175.243 177.453 174.877 177.229 174.885 176.16C174.885 162.321 181.61 158.351 194.071 152.101C206.282 145.938 218.046 139.011 220.038 125.426C220.2 124.316 226.548 119.295 226.548 107.556C226.548 99.9371 223.659 91.952 218.565 86.8672C211.22 79.4577 210.095 78.1897 207.308 76.6507C206.242 72.6128 204.14 68.8511 200.817 65.4202C191.918 56.1461 183.87 48.4944 171.253 50.9979C169.856 51.272 166.822 44.2623 157.524 43.3122C147.494 42.2797 144.222 48.7448 142.415 47.6231C133.08 41.8257 118.624 46.536 114.57 59.3173C114.424 59.7815 114.029 60.1195 113.55 60.186C96.3207 62.5638 90.3996 72.4371 88.3887 78.2912C82.8371 94.454 92.5018 106.369 104.23 117.294C112.149 124.675 122.821 127.15 134.212 123.417C135.515 122.991 137.302 127.503 143.971 130.91C126.472 145.461 128.409 168.435 131.282 170.869C131.32 170.913 133.666 173.351 135.649 175.232C129.258 181.425 127.057 191.486 131.542 199.882C131.065 199.663 130.569 199.469 130.032 199.331C129.057 199.082 128.059 198.924 126.968 198.924C126.114 198.924 125.322 199.004 124.625 199.077C124.389 199.101 123.746 199.164 123.746 199.164C122.947 199.261 121.606 199.431 120.327 200.284L120.19 200.374L120.064 200.473C118.954 201.336 117.684 203.017 117.601 206.132C117.601 206.166 117.601 206.203 117.599 206.236L112.796 201.447C112.588 201.224 112.352 200.993 112.053 200.769L110.881 199.891H110.357C109.972 199.77 109.57 199.683 109.159 199.644C108.245 199.475 107.257 199.382 106.279 199.382C104.401 199.382 101.697 199.707 99.4754 201.282C97.2208 202.912 96.3212 205.354 95.8827 207.313C94.1876 206.647 92.4873 206.537 90.8839 206.537C89.9055 206.537 88.923 206.508 87.8853 206.477C86.8286 206.445 85.7342 206.412 84.6265 206.412C83.3265 206.412 82.1776 206.457 81.1523 206.55C78.8837 206.726 76.7141 207.226 74.6202 207.708C73.9431 207.866 71.6061 208.394 71.6061 208.394C70.1495 208.743 68.6528 209.14 67.1514 209.519C66.2837 209.737 64.7787 210.088 63.4659 211.352C61.6616 213.019 61.3138 215.27 61.1572 216.291C60.7383 219.234 60.8228 222.215 61.4081 225.147C61.5281 225.738 61.8275 227.174 63.0393 228.295L69.5544 234.776C66.9705 238.477 64.2429 242.088 61.3839 245.584L61.116 245.918C59.9366 247.382 58.6016 249.044 57.7798 251.233C56.4866 254.677 57.0029 258.308 59.122 260.727L65.6469 267.273C68.4812 270.254 72.7009 270.262 74.7758 270.262H97.7824C98.2167 270.262 98.9432 270.262 99.7459 270.065L99.8644 270.034C103.739 268.958 104.631 264.939 104.925 263.621C104.925 263.621 105.275 261.735 105.429 260.865C105.887 261.313 106.404 261.687 106.983 261.975L107.413 262.19L107.879 262.307C108.227 262.394 108.772 262.535 109.443 262.569C110.183 262.651 110.942 262.697 111.706 262.697C113.108 262.697 114.493 262.554 115.827 262.279L116.074 262.225L116.431 262.106C117.017 261.915 117.995 261.595 118.928 260.849L119.116 260.699L119.288 260.526C120.546 259.269 120.918 257.768 121.119 256.967L121.167 256.772L121.347 255.841C121.347 255.841 125.304 259.797 125.465 259.956C126.339 260.868 127.372 261.745 128.669 262.393C129.958 263.037 131.596 263.408 133.159 263.408C133.638 263.408 134.097 263.365 134.547 263.297C134.728 263.467 139.232 267.98 139.322 268.062C140.719 269.516 142.709 270.263 145.269 270.263C145.822 270.261 146.334 270.234 146.784 270.21C147.07 270.19 147.34 270.173 147.587 270.173C147.587 270.173 164.46 270.107 164.841 270.107C165.153 270.107 165.406 270.118 165.609 270.144L165.759 270.159C165.852 270.166 165.939 270.175 166.026 270.185C166.341 270.219 166.729 270.262 167.195 270.262C169.25 270.262 170.658 269.354 171.509 268.546C172.541 267.606 173.329 266.37 173.843 264.87C174.218 263.85 174.519 262.793 174.747 261.716C175.454 262.178 176.458 262.579 177.796 262.579C178.002 262.579 178.213 262.569 178.424 262.555C180.705 262.416 183.065 262.273 185.479 261.983L185.61 261.968C186.56 261.823 189.439 261.384 190.879 258.625C190.957 258.474 191.022 258.324 191.083 258.176C191.101 258.192 191.921 259.014 192.023 259.111C193.637 260.764 195.707 262.294 197.857 262.294C198.005 262.294 198.154 262.286 198.296 262.274C199.607 262.172 200.564 261.639 201.088 261.353C201.141 261.319 201.199 261.288 201.257 261.256L201.383 261.193L201.5 261.125C202.445 260.582 203.42 260.013 204.408 259.385C204.457 259.632 204.51 259.869 204.559 260.119C204.942 262.187 205.793 263.476 206.701 264.284C206.759 264.344 212.407 269.996 212.465 270.051C213.359 271.043 214.385 271.491 215.109 271.688L215.216 271.717L215.325 271.741C216.658 272.032 217.855 272.173 218.99 272.173C222.824 272.173 225.083 270.51 226.312 269.095C227.478 267.781 228.035 266.269 228.427 265.081C229.218 262.725 230.102 260.476 230.936 258.258C230.955 258.277 236.019 263.341 236.099 263.421C236.978 264.422 238.413 265.382 240.765 265.712C242.224 265.958 243.707 266.085 245.181 266.085C245.787 266.085 246.397 266.06 246.984 266.019L247.068 266.012L247.231 265.992C248.1 265.895 249.693 265.716 251.099 264.509C252.648 263.232 253.111 261.475 253.256 260.902C253.673 259.342 254.008 257.592 254.279 255.556C256.09 244.465 257.963 232.996 258.77 221.488C258.914 219.809 259.073 217.913 258.651 215.853Z" fill="#302D2F"/>
<path d="M165.009 190.045C165.009 197.738 158.659 204.302 150.905 204.889C150.529 204.927 150.152 204.936 149.773 204.936C142.835 204.936 136.816 200.005 135.165 193.575C134.87 192.44 134.716 191.262 134.716 190.045C134.716 181.879 141.607 174.977 149.773 174.977C150.575 174.977 151.376 175.032 152.143 175.163C157.82 176.036 162.459 180.026 164.24 185.302C164.738 186.802 165.009 188.392 165.009 190.045Z" fill="#F8A46D"/>
<path d="M199.197 80.0765C195.383 80.0765 191.36 82.0061 187.242 85.8074C186.72 86.4556 186.134 86.9894 185.496 87.4392L185.569 87.5201C181.551 91.0942 177.517 92.879 173.572 92.879C169.432 92.879 165.387 90.9154 161.543 86.9966C161.049 86.4896 161.06 85.6745 161.589 85.1969L163.865 83.1447C164.354 82.7047 165.106 82.7258 165.566 83.1947C167.367 85.016 169.139 86.2243 170.92 86.8276C172.03 87.1996 172.973 85.8997 172.3 84.9444C171.505 83.8222 170.933 82.5084 170.647 81.0591C169.896 77.2577 171.325 72.5217 176.071 69.9734C176.709 69.6302 177.509 69.9332 177.782 70.604L178.955 73.4558C179.185 74.0169 178.977 74.6717 178.453 74.9799C175.668 76.608 175.915 79.179 176.075 79.9889C176.391 81.5856 177.636 83.4533 180.105 83.4533C181.926 83.4533 182.551 82.833 183 82.2492L183.308 81.9076C187.035 78.4221 190.826 76.1695 194.617 75.1586C195.199 75.0051 195.567 74.4363 195.511 73.8386C194.876 67.0778 190.121 60.7471 183.259 57.7562C176.652 54.8745 169.915 55.7576 164.602 60.1531C164.1 60.5678 163.36 60.5132 162.919 60.0366L160.834 57.7902C160.348 57.2662 160.408 56.4424 160.958 55.9859C161.867 55.2295 162.812 54.5546 163.787 53.9564C164.483 53.5298 164.584 52.5637 163.992 52.0026C162.116 50.221 159.7 49.0988 156.967 48.8185C153.702 48.4831 150.516 49.3992 147.942 51.3277C147.438 51.7058 147.3 52.405 147.622 52.9465C148.359 54.179 148.958 55.5402 149.389 57.0138C149.59 57.7047 149.159 58.4203 148.458 58.5718L145.46 59.22C144.828 59.357 144.202 58.9768 144.016 58.3534C142.028 51.7393 136.103 50.1591 131.442 50.8763C125.067 51.8563 118.64 57.4177 119.063 67.3658C119.09 68.0181 118.593 68.574 117.944 68.6332L114.894 68.9192C114.184 68.9836 113.57 68.4349 113.541 67.7218C113.534 67.5631 113.528 67.4018 113.523 67.2431C113.504 66.476 112.791 65.9231 112.037 66.071C102.6 67.9387 96.1331 72.8128 93.6338 80.0945C90.681 88.6917 93.7249 99.458 101.042 106.273C107.366 112.168 115.725 113.99 124.419 111.517C125.077 111.33 125.477 110.662 125.292 110.004C124.686 107.842 124.444 105.631 124.573 103.474C125.198 93.135 133.856 83.088 151.771 83.46C152.461 83.4745 153.003 84.067 152.968 84.7584L152.823 87.8158C152.795 88.4913 152.226 89.0075 151.549 88.9952C137.382 88.7468 130.562 96.1594 130.1 103.806C129.616 111.838 135.843 120.462 148.686 121.48C148.734 121.482 148.783 121.485 148.83 121.485C156.847 121.433 160.027 117.713 164.043 113.012C164.251 112.772 164.455 112.528 164.663 112.287C166.656 109.753 169.026 107.472 171.764 105.529L171.794 105.571C175.231 103.288 179.688 101.661 186.091 101.563C186.681 101.553 187.189 101.141 187.296 100.564C187.519 99.3776 187.946 98.1683 188.578 96.9472C188.908 96.3063 189.722 96.0883 190.332 96.467L192.934 98.0838C193.477 98.4203 193.673 99.1164 193.384 99.6836C192.206 102.004 192.032 104.552 195.815 107.496C196.334 107.899 196.46 108.632 196.089 109.175L194.368 111.707C193.966 112.297 193.144 112.421 192.579 111.987C190.861 110.666 189.55 109.242 188.639 107.738C188.416 107.368 188.033 107.123 187.602 107.11C177.261 106.85 173.187 110.876 169.016 115.72C165.003 120.845 162.894 127.239 163.097 134.12C163.19 137.25 163.764 140.357 164.802 143.379C165.018 144.006 164.714 144.696 164.094 144.937L161.227 146.04C160.57 146.294 159.836 145.951 159.608 145.286C159.513 145.011 159.418 144.731 159.329 144.455C159.181 143.988 158.779 143.648 158.291 143.589C154.874 143.182 153.308 144.718 152.335 146.751C152.06 147.326 151.387 147.594 150.789 147.371L147.923 146.294C147.25 146.04 146.927 145.264 147.229 144.614C149.161 140.482 152.359 138.252 156.536 138.031C157.242 137.995 157.793 137.396 157.72 136.696C157.641 135.893 157.587 135.09 157.562 134.284C157.529 133.105 157.554 131.938 157.637 130.787C157.706 129.801 156.676 129.117 155.809 129.591C144.844 135.625 134.554 145.207 135.208 163.703C135.229 164.362 135.783 164.882 136.444 164.882H141.013L141.37 164.776C142.458 164.461 143.582 164.132 144.616 163.748C148.193 162.425 150.35 160.016 150.914 156.736C151.02 156.11 151.568 155.661 152.201 155.7L155.277 155.89C155.996 155.933 156.532 156.584 156.428 157.299C156.125 159.41 155.416 161.322 154.334 162.99C153.804 163.806 154.427 164.882 155.398 164.882H161.406C162.021 164.882 162.555 164.431 162.63 163.82C164.324 150.364 174.63 145.194 184.62 140.181L184.855 140.067C181.346 138.265 179.159 135.219 178.425 131.082C178.314 130.461 177.749 130.038 177.122 130.079C176.819 130.1 176.509 130.109 176.193 130.109C174.896 130.109 173.525 129.953 172.081 129.633C171.383 129.481 170.951 128.776 171.14 128.089L171.957 125.138C172.132 124.506 172.772 124.123 173.414 124.262C178.606 125.384 181.667 123.689 183.392 118.739C183.608 118.122 184.264 117.773 184.897 117.953L187.845 118.786C188.528 118.983 188.906 119.72 188.676 120.395C187.631 123.431 186.1 125.771 184.143 127.396C183.848 127.64 183.666 127.995 183.676 128.38C183.831 133.233 186.235 135.663 191.407 136.291C191.679 136.324 191.96 136.26 192.195 136.122C197.626 132.921 201.412 129.853 203.902 126.56C204.634 125.593 203.7 124.264 202.542 124.629C201.563 124.937 200.535 125.202 199.461 125.42C198.77 125.562 198.094 125.108 197.98 124.409L197.483 121.385C197.377 120.735 197.801 120.112 198.446 119.978C212.903 116.987 214.054 104.442 214.054 100.587C214.055 90.681 208.083 80.0765 199.197 80.0765ZM128.468 82.4914C128.131 83.0571 127.411 83.2488 126.823 82.9458C124.231 81.6031 120.918 80.6866 118.193 82.5383C114.45 85.0799 112.721 92.002 113.76 99.9907C113.847 100.658 113.403 101.282 112.735 101.391L109.71 101.882C109.029 101.993 108.38 101.528 108.288 100.842C107.94 98.259 107.838 95.7792 107.971 93.454C108.003 92.8635 107.627 92.3318 107.054 92.1777C102.317 90.8979 99.2039 86.5293 99.2039 80.6773C99.2039 80.5279 99.206 80.3764 99.2122 80.2275C99.2338 79.5026 99.8742 78.9518 100.594 79.0337L103.647 79.384C104.286 79.4577 104.741 80.007 104.741 80.6489V80.6773C104.741 81.5439 104.915 85.2335 107.72 86.5571C108.378 86.8673 109.172 86.5519 109.415 85.8657C110.619 82.4291 112.532 79.6916 115.083 77.9589C117.451 76.3483 122.395 74.3301 129.553 78.1259C130.178 78.4582 130.407 79.2521 130.043 79.8601L128.468 82.4914ZM146.117 68.9527C142.851 67.7594 138.885 68.7322 134.596 71.7679C134.057 72.1466 133.31 72.0307 132.911 71.5098L131.042 69.0799C130.612 68.5214 130.739 67.7166 131.312 67.307C138.687 62.0563 144.431 62.4427 148.015 63.754C149.475 64.2847 150.823 65.0735 152.045 66.0823C152.443 66.4069 153.004 66.4244 153.447 66.1658C156.819 64.212 160.04 63.5252 163.225 64.1054C163.938 64.2347 164.371 64.972 164.168 65.6676L163.302 68.6281C163.128 69.2314 162.532 69.5833 161.909 69.4993C160.408 69.3005 158.882 69.6008 157.194 70.4252C156.59 70.7174 156.339 71.4577 156.635 72.0595C157.281 73.378 157.817 74.816 158.233 76.3596C158.418 77.047 157.997 77.7533 157.303 77.9048L154.307 78.5556C153.667 78.6972 153.029 78.3098 152.856 77.6771C151.64 73.2368 149.222 70.0867 146.117 68.9527ZM159.837 110.808C156.799 109.763 154.459 108.232 152.833 106.275C152.59 105.982 152.232 105.794 151.851 105.807C147.127 105.961 144.697 108.232 143.99 113.115C143.896 113.766 143.318 114.237 142.665 114.18L139.612 113.922C138.899 113.863 138.388 113.212 138.488 112.508C139.439 105.722 143.151 101.617 149.158 100.554C149.772 100.445 150.202 99.8928 150.163 99.2683C150.063 97.7005 150.206 96.0131 150.596 94.2093C150.75 93.5132 151.456 93.084 152.14 93.2757L155.093 94.0887C155.723 94.2634 156.106 94.9054 155.967 95.5458C154.845 100.736 156.54 103.799 161.489 105.524C162.107 105.74 162.459 106.397 162.279 107.028L161.441 109.977C161.247 110.661 160.511 111.038 159.837 110.808Z" fill="#F8A46D"/>
<path d="M73.5051 212.46C76.1457 211.904 78.8553 211.141 81.4995 210.933C84.6259 210.654 87.7538 210.933 90.8834 210.933C92.2039 210.933 93.594 211.001 94.7744 211.626C96.7209 212.668 97.5546 215.102 97.2789 217.259C96.9981 219.411 95.8893 221.428 94.7053 223.236C89.4907 231.506 83.1667 239.085 78.5776 247.704C78.3694 247.982 78.2298 248.399 78.5111 248.675C78.5776 248.816 78.8553 248.884 78.9944 248.884C83.9319 249.374 88.9363 249.024 93.8717 249.301C94.4276 249.374 95.1222 249.441 95.3994 249.999C95.539 250.343 95.4699 250.76 95.3994 251.108C95.0531 252.917 94.7744 254.657 94.4271 256.463C94.1484 257.714 93.7316 259.243 92.4811 259.589C92.2034 259.66 91.8556 259.66 91.5784 259.66H68.5692C66.3445 259.66 63.843 259.519 62.4529 257.852C61.2715 256.533 61.2715 254.449 61.8965 252.781C62.523 251.108 63.7034 249.717 64.8158 248.329C70.1685 241.793 75.0343 234.913 79.4112 227.685C80.1094 226.503 80.874 225.32 81.569 224.07C81.9163 223.374 82.9586 222.053 81.9163 221.427C81.3603 221.151 80.7354 221.219 80.1769 221.359C78.7198 221.568 77.188 221.844 75.7294 222.12C75.3121 222.194 74.8262 222.261 74.548 222.61C74.2703 222.887 74.2002 223.303 73.923 223.582C73.6453 223.934 73.2285 224.07 72.8116 224.208C71.0047 224.695 69.1978 224.904 67.3183 225.253C66.9009 225.388 66.4156 225.461 66.0673 225.112C65.8591 224.976 65.7901 224.625 65.7195 224.278C65.2336 221.844 65.1646 219.343 65.5113 216.909C65.651 216.008 65.8591 215.102 66.4846 214.544C66.972 214.062 67.5975 213.919 68.2225 213.781C69.9578 213.294 71.7673 212.876 73.5051 212.46Z" fill="#77CEF4"/>
<path d="M109.417 204.292C109.695 204.5 109.834 204.776 110.043 205.053C111.991 208.46 114.007 211.798 115.535 215.412C116.994 218.957 118.106 222.639 119.844 226.047C119.982 226.255 120.052 226.464 120.33 226.602C120.607 226.74 121.024 226.602 121.237 226.255C121.445 225.977 121.514 225.63 121.58 225.213C122.417 218.957 121.722 212.561 121.997 206.236C121.997 205.402 122.137 204.427 122.762 203.943C123.181 203.667 123.738 203.594 124.294 203.526C125.892 203.386 127.351 203.109 128.949 203.594C129.644 203.734 130.342 204.084 130.687 204.709C130.967 205.194 130.967 205.678 130.967 206.236C130.967 220.555 131.034 234.874 130.342 249.126C130.269 250.1 130.203 251.142 129.578 251.835C128.463 253.156 125.822 252.948 124.432 252.253C123.182 251.627 122.208 250.517 121.306 249.403C119.357 246.901 117.342 244.606 115.327 242.175C114.841 241.618 114.216 240.924 113.451 241.063C112.547 241.133 112.127 242.243 111.919 243.218C111.502 245.37 111.085 247.459 110.668 249.611C110.529 250.169 110.391 250.794 109.974 251.21C109.627 251.487 109.14 251.628 108.722 251.768C107.054 252.112 105.247 252.185 103.577 251.976C103.302 251.976 103.021 251.904 102.747 251.836C102.049 251.487 101.704 250.726 101.493 250.027C99.8243 245.161 99.7552 239.95 100.173 234.806C100.589 229.664 101.493 224.588 101.705 219.443C101.771 218.75 101.771 217.914 101.354 217.289C101.146 216.871 100.732 216.522 100.451 216.176C99.6872 215.134 99.6161 213.813 99.6872 212.632C99.7562 211.382 99.8959 210.128 100.033 208.946C100.313 207.419 100.798 205.752 102.049 204.845C103.72 203.667 106.638 203.594 108.584 204.012C108.862 204.012 109.141 204.085 109.349 204.293H109.417V204.292Z" fill="#77CEF4"/>
<path d="M140.936 211.321C148.009 210.727 155.083 210.206 162.232 209.76C162.526 209.76 162.825 209.76 163.05 209.833C163.273 209.908 163.491 210.056 163.642 210.278C164.611 211.248 165.134 212.589 165.581 213.856C166.024 214.971 166.472 216.163 166.546 217.429C166.773 220.332 165.208 223.458 163.642 225.841C161.858 228.597 159.919 231.278 157.986 233.958C155.454 237.531 153.146 241.253 150.838 245.049C150.539 245.573 150.242 246.169 150.465 246.765C150.763 247.432 151.731 247.579 152.475 247.579C155.901 247.656 159.397 247.729 162.825 247.807C163.272 247.807 163.719 247.88 164.015 248.102C164.461 248.398 164.61 249.07 164.61 249.668C164.761 252.196 164.387 254.807 163.491 257.187C163.272 257.856 162.899 258.6 162.301 259.121C161.559 259.867 160.815 259.643 159.918 259.567C158.656 259.419 157.315 259.567 156.048 259.567H148.529H141.382C139.743 259.567 137.211 260.091 136.094 258.6C135.797 258.301 135.648 257.928 135.499 257.558C134.978 256.145 134.457 254.729 134.232 253.241C134.01 251.753 134.158 250.187 134.829 248.85C135.276 247.88 135.946 247.136 136.69 246.317C139.594 242.965 142.274 239.392 144.582 235.669C145.476 234.254 146.518 233.064 147.411 231.723C148.379 230.235 149.273 228.747 150.167 227.257C150.911 226.067 151.655 224.874 152.325 223.609C152.698 222.938 153.741 221.525 152.698 220.929C151.283 220.109 148.454 221.224 146.965 221.525C144.732 221.97 142.423 222.344 140.19 222.715C139.593 222.79 138.923 222.938 138.328 222.64C137.881 222.416 137.509 221.896 137.286 221.448C136.168 219.29 136.093 216.683 136.019 214.302C136.019 213.929 136.019 213.483 136.168 213.183C136.318 212.887 136.615 212.589 136.912 212.441C137.359 212.067 137.881 211.845 138.477 211.695C139.298 211.546 140.116 211.398 140.936 211.321Z" fill="#77CEF4"/>
<path d="M180.766 243.284C180.775 243.209 180.78 243.133 180.786 243.056C180.813 242.699 180.84 242.336 181.115 242.145C181.641 241.626 182.506 242.13 183.025 242.658C184.434 244.038 185.706 245.562 186.855 247.235C187.541 248.239 190.481 251.828 191.727 251.685L180.766 243.284ZM180.766 243.284C180.786 244.067 180.805 244.839 180.824 245.61C180.854 246.822 180.884 248.028 180.916 249.261M180.766 243.284L180.916 249.261M180.916 249.261L180.917 249.265C180.936 249.613 180.959 250.028 180.772 250.383M180.916 249.261L180.772 250.383M180.772 250.383C180.4 251.103 179.504 251.297 178.748 251.411C176.467 251.687 174.174 251.825 171.954 251.956L171.941 251.957C171.53 251.981 171.119 252.005 170.829 251.748M180.772 250.383L170.829 251.748M170.829 251.748C170.46 251.424 170.426 250.866 170.402 250.449C170.431 245.086 170.315 239.731 170.136 234.38M170.829 251.748L170.136 234.38M170.136 234.38C169.965 230.164 169.721 225.953 169.478 221.756C169.313 218.899 169.148 216.048 169.006 213.207L170.136 234.38ZM167.869 209.226L167.861 209.188L167.846 209.152C167.72 208.835 167.693 208.5 167.668 208.082C167.667 206.943 167.803 205.866 168.073 204.778L168.079 204.752L168.083 204.726C168.123 204.43 168.212 204.203 168.307 204.085C168.508 203.916 168.837 203.833 169.209 203.809L169.231 203.807L169.252 203.804C169.987 203.692 170.656 203.652 171.35 203.611L171.355 203.611L171.356 203.61C171.74 203.587 172.111 203.522 172.449 203.464C172.506 203.454 172.562 203.444 172.617 203.435C173.01 203.368 173.366 203.318 173.731 203.327L173.732 203.327C174.538 203.346 175.233 203.499 175.685 203.899C176.085 204.256 176.41 204.666 176.617 205.13L176.623 205.144L176.63 205.157C177.417 206.666 177.774 208.352 178.054 210.128C178.117 210.522 178.175 210.922 178.234 211.325C178.436 212.71 178.644 214.134 179.027 215.487C179.128 215.928 179.291 216.408 179.55 216.82C179.811 217.236 180.19 217.615 180.726 217.778C182.239 218.289 183.575 217.314 184.326 216.388C185.436 215.063 186.479 213.74 187.515 212.273L187.515 212.273L187.52 212.266C189.215 209.777 191.408 207.586 193.774 205.652L193.783 205.644L193.792 205.636C194.104 205.355 194.385 205.166 194.673 205.137C195.016 205.171 195.315 205.414 195.774 205.82C195.835 205.88 195.896 205.941 195.958 206.002C197.159 207.194 198.404 208.429 199.526 209.732L199.548 209.757L199.573 209.779C199.652 209.85 199.74 209.957 199.8 210.044C199.801 210.196 199.702 210.421 199.456 210.645L199.429 210.67L199.405 210.699C197.979 212.449 196.554 214.136 195.059 215.895L195.059 215.895L195.055 215.9C193.755 217.47 192.404 218.983 191.044 220.507C190.951 220.611 190.858 220.715 190.766 220.819C189.314 222.446 187.855 224.09 186.453 225.819L186.447 225.826L186.442 225.833C186.424 225.857 186.405 225.882 186.386 225.907C186.022 226.387 185.521 227.048 185.411 227.861C185.314 228.505 185.517 229.082 185.8 229.573C186.063 230.03 186.424 230.458 186.738 230.83C186.757 230.853 186.776 230.875 186.794 230.896L186.794 230.896L186.802 230.906C188.296 232.591 190.298 234.89 192.302 237.192L192.361 237.26C194.344 239.538 196.324 241.812 197.805 243.485L197.805 243.485L197.813 243.493C198.142 243.848 198.466 244.229 198.7 244.626C198.931 245.02 199.049 245.389 199.024 245.734C198.968 246.159 198.75 246.552 198.418 246.926C198.082 247.304 197.654 247.636 197.228 247.935L197.228 247.935L197.222 247.939C195.781 248.981 194.326 249.823 192.846 250.678C192.726 250.739 192.611 250.802 192.507 250.86L192.498 250.865C192.385 250.928 192.286 250.983 192.189 251.031C191.996 251.126 191.844 251.177 191.697 251.186L191.683 251.187L191.67 251.188C191.636 251.192 191.547 251.186 191.386 251.117C191.23 251.05 191.042 250.939 190.829 250.785C190.401 250.478 189.919 250.035 189.44 249.542C188.482 248.555 187.594 247.429 187.268 246.953L187.268 246.952C186.102 245.255 184.81 243.707 183.378 242.304C183.087 242.008 182.681 241.7 182.245 241.54C181.812 241.381 181.245 241.341 180.794 241.761C180.499 241.984 180.391 242.299 180.342 242.548C180.317 242.678 180.304 242.808 180.295 242.92C180.292 242.959 180.289 242.994 180.287 243.028C180.281 243.1 180.277 243.164 180.269 243.229L180.266 243.263L180.267 243.297C180.286 244.079 180.305 244.851 180.324 245.622C180.354 246.834 180.384 248.041 180.417 249.274L180.417 249.282L180.417 249.289C180.438 249.665 180.442 249.936 180.329 250.15L180.327 250.154C180.213 250.375 180.01 250.538 179.711 250.663C179.409 250.789 179.051 250.86 178.68 250.916C176.419 251.189 174.144 251.326 171.925 251.457C171.706 251.47 171.545 251.479 171.404 251.462C171.274 251.447 171.206 251.414 171.16 251.374L171.159 251.373C171.079 251.302 171.015 251.189 170.972 251.013C170.928 250.837 170.914 250.644 170.902 250.436C170.931 245.069 170.815 239.713 170.635 234.364L170.635 234.36C170.465 230.142 170.22 225.92 169.977 221.718C169.811 218.861 169.646 216.014 169.506 213.182L169.506 213.182L169.505 213.176C169.504 213.157 169.503 213.138 169.502 213.119C169.466 212.535 169.423 211.842 169.147 211.222C169.041 210.961 168.897 210.754 168.764 210.583C168.707 210.509 168.658 210.449 168.613 210.393C168.54 210.304 168.479 210.228 168.413 210.133C168.358 210.051 168.299 209.969 168.245 209.895C168.239 209.887 168.233 209.878 168.226 209.869C168.165 209.785 168.11 209.708 168.061 209.632C167.96 209.478 167.898 209.35 167.869 209.226Z" fill="#77CEF4" stroke="black"/>
<path d="M209.068 213.397C209.276 213.536 209.416 213.814 209.485 214.094C211.777 220.696 214.075 227.303 216.368 233.902C219.286 227.928 220.747 221.253 223.528 215.208C223.874 214.37 224.361 213.536 225.195 213.189C225.82 212.981 226.514 213.119 227.211 213.189C228.811 213.536 230.476 213.814 232.146 214.161C232.425 214.161 232.704 214.232 232.911 214.37C233.258 214.648 233.396 215.135 233.396 215.62C233.467 216.736 233.05 217.845 232.703 218.96C227.766 232.722 222.989 243.653 218.054 257.487C217.775 258.388 217.429 259.291 216.803 259.988C215.131 261.932 212.283 261.723 210.06 261.239C209.294 261.031 209.013 260.056 208.877 259.291C206.444 247.061 203.298 237.797 200.795 225.635C200.516 224.238 200.448 222.503 199.753 221.253C199.197 220.14 198.849 219.585 198.849 218.194C198.849 217.5 198.849 216.662 199.265 216.107C199.683 215.552 200.448 215.273 201.074 214.999C203.435 214.161 205.732 213.606 208.163 213.327C208.51 213.259 208.791 213.259 209.068 213.397Z" fill="#77CEF4"/>
<path d="M246.329 208.805C246.8 208.936 247.275 209.067 247.653 209.401C247.891 209.711 248.052 210.082 248.136 210.516C248.436 211.955 248.312 213.415 248.181 214.937C247.387 226.261 245.552 237.516 243.727 248.704C243.506 250.362 243.218 252.005 242.806 253.561C242.661 254.104 242.452 254.637 242.059 254.936C241.662 255.306 241.022 255.359 240.455 255.428C238.754 255.551 236.945 255.454 235.23 255.156C234.333 255.038 233.388 254.773 232.994 254.019C232.716 253.493 232.721 252.931 232.801 252.31C232.949 249.596 233.453 246.86 233.874 244.18L237.44 212.397C237.73 211.243 237.964 210.012 238.831 209.285C240.672 207.566 244.148 208.305 246.329 208.805Z" fill="#77CEF4"/>
</svg>
