<svg width="64" height="64" viewBox="0 0 64 64" fill="none" xmlns="http://www.w3.org/2000/svg">
<path d="M50.6967 8.83689C45.3223 3.38586 37.8597 0 29.6183 0C13.2868 0 0 13.2864 0 29.6178C0 37.8592 3.3868 45.3218 8.83736 50.6963C15.1569 57.1131 21.6161 63.9995 34.3817 63.9995C50.7127 63.9995 64 50.7127 64 34.3812C64 21.634 57.1216 15.1574 50.6967 8.83689Z" fill="#2F2C2F"/>
<path d="M55.861 29.6178C55.861 44.1116 44.1116 55.8606 29.6187 55.8606C15.125 55.8606 3.37598 44.1116 3.37598 29.6178C3.37598 15.1245 15.125 3.37555 29.6187 3.37555C44.1111 3.37555 55.861 15.1245 55.861 29.6178Z" fill="#5899B5"/>
<path d="M27.2467 23.1394V14.4547C27.2467 13.3568 26.8101 12.2909 25.9993 11.5497C23.89 9.62082 20.0713 10.3442 17.9826 13.3225C14.303 13.8419 12.5245 15.8116 12.4611 19.0899C10.1665 20.6037 9.03808 22.5989 9.88407 25.409C8.39559 27.6137 8.26446 29.8777 9.88407 32.2183C9.06111 34.6374 9.51841 36.5648 11.2955 37.9856C11.1155 40.7361 12.4559 42.632 15.2829 43.6909C16.0401 46.243 17.6959 47.7254 20.0684 48.3542C23.0181 49.1556 25.1858 48.7829 26.4336 47.0317C26.9755 46.2712 27.2467 45.35 27.2467 44.4166V35.5938V34.1824H32.8904V46.0475C32.8904 47.0509 33.7035 47.8636 34.707 47.8636H37.5161C38.5191 47.8636 39.3322 47.0509 39.3322 46.0475V41.6511C39.3322 41.4006 39.5357 41.1971 39.7867 41.1971H40.0438C40.2948 41.1971 40.4978 41.4006 40.4978 41.6511V42.2316C40.4978 42.7331 40.9048 43.1401 41.4063 43.1401H44.1911C44.693 43.1401 45.0996 42.7335 45.0996 42.2316V35.88C45.0996 35.6319 45.3007 35.4303 45.5493 35.4303C45.798 35.4303 45.9991 35.6319 45.9991 35.88V36.6081C45.9991 37.1096 46.4057 37.5166 46.9076 37.5166H49.6106C50.1121 37.5166 50.5186 37.11 50.5186 36.6081V22.5345C50.5186 22.0335 50.1121 21.6255 49.6106 21.6255H46.9076C46.4057 21.6255 45.9991 22.033 45.9991 22.5345V23.34C45.9991 23.5906 45.7961 23.7941 45.5451 23.7941H45.39C45.139 23.7941 44.936 23.5906 44.936 23.34V16.8701C44.936 16.3686 44.529 15.9616 44.0275 15.9616H41.3654C40.8639 15.9616 40.4565 16.3681 40.4565 16.8701V17.6958C40.4565 17.9464 40.2534 18.1499 40.0029 18.1499H39.8887C39.6382 18.1499 39.4347 17.9464 39.4347 17.6958V12.9108C39.4347 11.9074 38.6216 11.0947 37.6181 11.0947H34.6252C33.6218 11.0947 32.8087 11.9074 32.8087 12.9108V25.001H27.2265L27.2467 23.1394Z" fill="#2F2C2F"/>
<path d="M32.8598 30.2509H31.4668C30.3726 30.2509 29.4857 29.364 29.4857 28.2699V26.7659C29.4857 26.4712 29.7245 26.2324 30.0187 26.2324H32.3269C32.6211 26.2324 32.8598 26.4712 32.8598 26.7659V30.2509Z" fill="#77CEF4"/>
<path d="M37.8701 37.2524H37.0203C36.2359 37.2524 35.6 36.616 35.6 35.8321V12.9023C35.6 12.6781 35.7819 12.4967 36.0061 12.4967H37.4645C37.6886 12.4967 37.8701 12.6786 37.8701 12.9023V37.2524Z" fill="#77CEF4"/>
<path d="M43.7737 32.5586H43.0536C42.3886 32.5586 41.8495 32.02 41.8495 31.354V17.7485C41.8495 17.5591 42.0036 17.4054 42.1935 17.4054H43.4296C43.6195 17.4054 43.7732 17.5591 43.7732 17.7485L43.7737 32.5586Z" fill="#77CEF4"/>
<path d="M49.3756 28.5707H48.6485C47.9769 28.5707 47.4326 28.0269 47.4326 27.3553V23.5864C47.4326 23.2729 47.6874 23.0181 48.0008 23.0181H48.8074C49.1208 23.0181 49.3756 23.2729 49.3756 23.5864V28.5707Z" fill="#77CEF4"/>
<path d="M24.4671 44.1671C24.3158 45.5165 23.5601 46.1453 22.0937 46.1453C21.8883 46.1453 21.6678 46.1322 21.4394 46.1059C20.0088 45.8671 18.9644 45.2486 18.2745 44.2235C18.799 44.1681 19.2638 44.0637 19.6788 43.9096C20.2987 43.7216 20.6729 43.1815 20.5906 42.587C20.5088 41.991 20.005 41.5586 19.3931 41.5586C19.1844 41.5586 18.9729 41.608 18.7647 41.7057L18.752 41.7114C18.5358 41.819 18.2209 41.8731 17.8167 41.8731C17.6672 41.8731 17.5046 41.8655 17.3326 41.85C15.6801 41.6141 14.577 40.8555 13.9674 39.5339L15.8333 39.845C15.8968 39.8549 15.9546 39.8596 16.0114 39.8596C16.6285 39.8596 17.1206 39.32 17.1314 38.631C17.1422 37.9646 16.7 37.464 16.0763 37.4297C13.841 37.2055 12.5523 36.3802 12.0268 34.8334C11.9817 34.559 12.0136 34.4011 12.0606 34.3447C12.117 34.2765 12.3036 34.2046 12.6599 34.2046C12.8723 34.2046 13.1238 34.23 13.4081 34.2803L14.9121 34.5726L14.9497 34.5759C14.9854 34.5787 15.0197 34.5801 15.0545 34.5801C15.8183 34.5801 16.2925 33.9231 16.3099 33.2872C16.3273 32.6466 15.9066 32.1563 15.3074 32.1136L14.1888 31.9984C12.3046 31.48 11.3495 30.3986 11.1874 28.5985C11.2175 27.4724 11.859 26.5145 13.1473 25.6727C13.622 25.4716 13.8917 24.9917 13.81 24.4691C13.7221 23.9084 13.2516 23.5013 12.6918 23.5013C12.564 23.5013 12.4352 23.5225 12.3064 23.5629H12.2862C12.3426 22.7733 12.6289 22.0702 13.1195 21.5396C13.8194 20.7838 14.9027 20.3839 16.253 20.3839C16.2854 20.3839 16.3179 20.3839 16.3503 20.3839C17.8815 20.5639 18.9433 21.2604 19.5947 22.5129C19.8109 22.9303 20.2254 23.1893 20.6766 23.1893C21.0352 23.1893 21.3755 23.0219 21.5856 22.7404C21.8131 22.4368 21.8718 22.0453 21.752 21.6383L21.7463 21.619L21.7402 21.6016C20.976 19.4603 19.1938 18.2501 16.4424 18.0052C15.7459 17.8816 15.5142 17.6814 15.438 17.5714C15.4159 17.5404 15.3567 17.4553 15.3704 17.2556C16.1928 16.0824 17.272 15.5109 18.665 15.5109C19.002 15.5109 19.3625 15.5452 19.7376 15.612L21.3858 16.4171C21.6138 16.551 21.8634 16.6215 22.1106 16.6215C22.5801 16.6215 22.9937 16.3724 23.1911 15.9729C23.389 15.5701 23.3283 15.0973 23.0285 14.7072L22.9688 14.6301L21.627 13.654C21.5518 13.5416 21.5259 13.4599 21.5353 13.4251C21.5438 13.395 21.6434 13.129 22.6022 12.7516C22.8579 12.6994 23.0901 12.6726 23.2931 12.6726C23.9365 12.6726 24.3826 12.893 24.4667 13.9628L24.4671 44.1671Z" fill="#77CEF4"/>
<path d="M26.4843 42.617C26.3974 42.6401 26.3104 42.6514 26.2249 42.6514C25.7826 42.6514 25.3779 42.3562 25.2581 41.9088C24.8826 40.5039 23.9557 38.2715 21.806 37.7211C21.806 37.7211 21.805 37.7211 21.8041 37.7206C21.8017 37.7201 21.7994 37.7192 21.7966 37.7183C21.4831 37.6388 21.1433 37.5947 20.7757 37.5947C20.2959 37.5947 19.7826 37.6703 19.2487 37.8198C18.7162 37.9683 18.163 37.6572 18.015 37.1247C17.8665 36.5917 18.1776 36.0394 18.7101 35.8909C19.4189 35.6926 20.114 35.5925 20.7762 35.5925C20.9125 35.5925 21.0474 35.5981 21.1818 35.6066C21.1452 34.8785 20.7959 34.2173 20.1159 33.5903C19.7093 33.2148 19.6839 32.5817 20.059 32.1751C20.434 31.7686 21.0676 31.7432 21.4737 32.1182C22.6111 33.1682 23.1878 34.3846 23.1878 35.7339C23.1878 35.85 23.1831 35.9671 23.1741 36.0855C23.8227 36.3694 24.4206 36.7722 24.9512 37.291C25.9654 38.2813 26.7409 39.6998 27.1931 41.3904C27.3355 41.9252 27.0182 42.4742 26.4843 42.617ZM26.6234 23.828C27.131 23.608 27.3637 23.0182 27.1442 22.511C27.0352 22.2591 26.9355 22.0185 26.8392 21.7854C26.1722 20.1742 25.5965 18.7821 23.411 18.0188C22.8888 17.8364 22.3178 18.1119 22.1354 18.6345C21.9531 19.1562 22.2285 19.7272 22.7507 19.9096C24.0892 20.3772 24.3712 21.0583 24.9888 22.5515C25.088 22.7916 25.1909 23.0398 25.3065 23.3067C25.4701 23.6846 25.839 23.9102 26.2258 23.9102C26.3588 23.9107 26.4937 23.8839 26.6234 23.828Z" fill="#2F2C2F"/>
<path d="M23.2916 27.8939C22.423 26.5271 21.069 25.6337 19.4287 25.3315C19.2313 23.9656 18.3402 22.7244 16.9391 22.0156C16.4456 21.7665 15.8435 21.9644 15.594 22.4574C15.3444 22.9504 15.5423 23.553 16.0358 23.8026C17.3442 24.4638 17.6483 25.6553 17.3701 26.5431C17.1262 27.3186 16.4447 27.8859 15.5 28.0988C14.9604 28.2205 14.6215 28.7559 14.7433 29.2954C14.8481 29.7607 15.2612 30.0775 15.719 30.0775C15.7918 30.0775 15.8656 30.069 15.9394 30.0521C17.528 29.6944 18.7096 28.707 19.2144 27.3304C20.0321 27.5094 20.9557 27.9512 21.6015 28.9674C21.7923 29.2677 22.1161 29.4317 22.4475 29.4317C22.6308 29.4317 22.8169 29.3814 22.9833 29.2747C23.45 28.9796 23.5881 28.3611 23.2916 27.8939Z" fill="#2F2C2F"/>
</svg>
