<svg width="62" height="64" viewBox="0 0 62 64" fill="none" xmlns="http://www.w3.org/2000/svg">
<path d="M48.9096 8.83601C43.7226 3.384 36.5224 0 28.5741 0C12.818 0 0 13.2869 0 29.6194C0 37.8586 3.2691 45.3222 8.52415 50.699C14.6226 57.1145 20.8524 64 33.1671 64C48.9232 64 61.7412 50.7131 61.7412 34.3806C61.7412 21.6341 55.1077 15.1575 48.9096 8.83601Z" fill="#302D2F"/>
<path d="M28.5739 55.8643C42.557 55.8643 53.8925 44.114 53.8925 29.6194C53.8925 15.1248 42.557 3.37457 28.5739 3.37457C14.5909 3.37457 3.25537 15.1248 3.25537 29.6194C3.25537 44.114 14.5909 55.8643 28.5739 55.8643Z" fill="#947642"/>
<mask id="mask0_73_13274" style="mask-type:luminance" maskUnits="userSpaceOnUse" x="6" y="6" width="45" height="47">
<path d="M28.3564 52.4709C40.5315 52.4709 50.4014 42.2399 50.4014 29.6194C50.4014 16.9989 40.5315 6.76801 28.3564 6.76801C16.1814 6.76801 6.31152 16.9989 6.31152 29.6194C6.31152 42.2399 16.1814 52.4709 28.3564 52.4709Z" fill="white"/>
</mask>
<g mask="url(#mask0_73_13274)">
<path d="M18.2589 25.0463C18.1592 25.709 18.1365 26.8135 18.2408 27.7112C17.6831 26.4751 18.0186 25.2202 18.2589 25.0463Z" fill="#D4A860"/>
<path d="M20.9203 26.1461C20.6438 25.8453 21.0337 25.8923 21.011 25.9863C21.0065 26.0333 20.9657 26.0756 20.9203 26.1461Z" fill="#D4A860"/>
<path d="M18.6123 28.3504C18.9025 24.7455 18.2178 25.1403 19.4194 26.0098C19.5418 26.0991 19.4511 26.2871 19.7957 26.461C19.9453 26.5362 19.8365 26.6349 19.8365 26.649C19.7912 27.0485 20.0224 26.7336 20.0224 26.6678C20.0315 26.2495 20.0587 26.3153 20.1222 26.2166C20.3443 26.4563 20.2537 27.0156 20.8476 27.0485C21.3101 27.072 21.5686 26.3435 21.5595 25.9769C25.1233 27.9697 21.8043 25.0181 20.0814 25.521C20.9746 24.5575 22.3167 25.1638 22.9923 25.3753C23.5001 25.5351 23.7495 27.3305 22.5842 28.6982C20.8748 29.9578 19.5101 29.5865 18.6123 28.3504Z" fill="#D4A860"/>
<path d="M29.5986 26.5691C29.594 26.6114 29.5532 26.6537 29.5124 26.7195C29.2404 26.4046 29.6122 26.4328 29.5986 26.5691Z" fill="#D4A860"/>
<path d="M30.7821 26.3764C30.3605 26.3764 30.1201 26.1555 29.5761 26.1555C28.9413 26.1555 28.5015 26.5926 28.5015 26.3764C28.5015 26.2166 29.0637 25.2954 30.1927 25.2954C31.8885 25.2954 31.426 26.3764 30.7821 26.3764Z" fill="#D4A860"/>
<path d="M28.0167 27.2789C28.2706 27.1191 28.461 27.2601 28.6061 27.0156C28.6061 27.575 29.0731 27.904 29.5537 27.904C30.4061 27.904 30.6827 26.9875 30.4696 26.6161C30.9684 27.0251 32.0158 26.4281 32.0158 27.5891C32.0158 28.9474 31.0137 30.5501 28.987 30.0049C27.6358 29.6524 27.3093 27.7348 28.0167 27.2789Z" fill="#D4A860"/>
<path d="M26.5836 44.1519C26.969 44.3352 27.0506 44.7441 27.4814 44.8804C27.8577 45.0026 29.1409 44.9274 29.1409 45.4914C29.1409 45.9802 28.4743 46.3891 28.2114 46.751C29.1 46.8497 29.9389 46.1212 30.7051 45.7499C34.8765 43.7336 32.5868 43.2025 34.1828 45.4867C34.1057 45.9285 33.9969 46.3656 33.8382 46.7886C32.9132 49.2655 34.9853 61.697 32.1288 51.921C31.4351 49.5522 31.7026 47.0001 30.6235 47.0706C30.4376 47.0847 30.0023 46.9625 30.0023 47.0988C30.0023 47.4231 30.5192 47.1176 30.9636 47.7615C31.6709 49.3125 30.7414 49.4206 30.7867 49.7825C30.8003 49.8436 30.8774 50.4358 30.8366 50.4358C30.8366 51.1596 29.9162 50.9481 29.9434 50.9481C29.4356 51.0374 27.4814 51.827 27.8668 52.1278C28.1569 52.3581 29.2451 51.1267 30.551 51.6625C31.5213 52.0667 30.3651 52.0949 32.5959 55.3849C32.4145 55.3426 28.7872 55.3332 27.894 55.4742C27.826 54.4449 27.7171 53.284 27.3317 52.5649C27.2819 51.2959 27.9847 51.639 27.8668 51.0374C27.3272 48.2315 27.9121 48.2644 27.3952 47.7004C26.9418 48.4101 27.2909 48.9788 26.0622 52.3534C22.7568 46.0648 18.4993 42.2625 19.3471 39.372C19.9955 41.2943 21.2197 41.9241 21.6731 42.8171C21.6868 42.4364 21.6278 42.1215 21.519 41.7502C22.3895 42.1309 22.6933 42.85 23.0651 43.7054C22.6707 39.6587 19.2111 41.8818 19.2111 36.5002C19.2111 36.0537 19.3245 35.5978 19.3245 35.1513C19.3245 34.2536 18.7532 33.6191 18.7532 32.6979C18.7532 31.6592 19.2565 30.1928 18.8711 29.1823C20.2812 30.4466 21.6369 29.9531 22.9472 28.9191C24.049 28.0496 23.4687 25.3894 25.5952 26.2683C25.8944 26.3905 25.7901 26.4845 25.7448 27.1331C25.7312 27.3352 25.7629 27.542 25.7176 27.7488C26.1755 29.3797 24.7972 31.6592 25.9715 31.9083C25.9307 32.0728 25.9534 31.9224 25.7312 32.0681C25.6133 32.148 25.5634 31.9459 25.4093 32.1527C24.2032 33.7084 22.911 32.3642 24.4208 33.5439C24.8924 33.9152 27.3317 34.5779 27.826 33.9998C28.3519 33.3888 28.0119 32.5381 27.1957 30.7615C27.4451 29.4361 28.8144 30.6111 29.5127 30.6111C32.4281 31.1281 33.3077 27.7817 33.9516 27.7112C34.405 27.6642 34.6453 27.4621 34.8312 27.589C35.4932 31.0623 32.2467 30.0988 32.2467 35.3299C32.2467 35.8563 31.8477 37.9948 31.4306 38.9019C30.7641 40.3543 30.3923 40.0206 29.4265 40.5705C28.1207 41.3131 26.4793 42.7842 25.3367 42.7842C24.9559 42.7842 24.5705 42.7184 24.1941 42.7184C22.1628 42.7137 26.5564 44.1378 26.5836 44.1519Z" fill="#D4A860"/>
<path d="M35.7836 24.2802C34.0198 25.192 31.1044 22.5976 27.6222 24.2614C25.1375 25.4411 25.2236 25.0651 24.9788 25.2766C24.7838 25.4505 24.9969 25.2437 24.004 24.8113C19.3882 22.8232 19.9731 23.6692 19.7963 23.453C16.5453 25.2249 19.624 14.2316 20.6714 13.7898C21.2699 14.2363 24.7929 13.9308 25.5864 13.7005C26.3345 14.0765 27.2821 14.1282 28.1482 13.7428C28.9462 13.9778 29.6081 13.9073 30.0978 13.8791C30.2384 13.9637 32.1563 15.1105 32.8047 15.3831C34.0108 15.9001 36.2144 15.5946 36.8174 16.1539C37.3207 16.6192 36.2869 17.7237 35.7201 18.9786C34.6184 21.4226 37.7288 21.9396 35.7836 24.2802Z" fill="#D4A860"/>
<path d="M28.8642 37.2992C28.497 37.0501 27.7851 37.2428 26.2299 36.7869C24.9105 36.4015 25.4908 36.6177 24.4525 37.0078C24.1215 37.13 24.3165 36.8809 23.7225 36.707C23.5366 36.6553 22.4575 37.2663 22.2172 37.1112C21.7457 36.8198 21.2106 37.3697 21.7593 37.2663C21.8318 37.2522 22.2444 37.2193 22.3487 37.2898C22.6162 37.4731 23.1966 37.2287 23.6046 37.2522C24.2213 37.2851 24.8289 37.5295 25.3775 37.3885C25.7085 37.2992 27.0188 37.3133 26.9508 37.5953C26.8919 37.8256 27.6627 37.7551 27.7488 37.741C28.8552 37.5483 28.6012 37.5107 29.0955 37.7457C29.3086 37.8444 28.9866 37.3838 28.8642 37.2992Z" fill="#302D2F"/>
<path d="M22.9563 32.9612C23.3099 33.0881 23.3462 32.9095 23.2646 32.8531C22.8248 32.5664 22.8157 32.9095 22.9563 32.9612Z" fill="#302D2F"/>
<path d="M28.4975 36.5613H28.4834L28.4881 36.5707L28.4975 36.5613Z" fill="black"/>
<path d="M23.7637 38.9395C23.9722 39.0382 24.1763 39.1181 24.2534 39.3672C25.1058 38.3191 25.541 38.9442 26.5386 38.3943C25.4821 38.2486 24.3259 37.8632 23.7637 38.9395Z" fill="#302D2F"/>
<path d="M29.7077 38.916C31.671 35.7858 28.4971 35.1654 28.2749 34.9492C28.8507 36.3028 30.6644 35.8093 29.7077 38.916Z" fill="#302D2F"/>
<path d="M25.0736 34.7612C25.0736 34.5074 24.9512 34.0045 24.7517 34.2724C24.2847 34.9022 24.4162 35.1561 24.6383 35.8705C24.8832 35.4005 25.0736 35.1185 25.0736 34.7612Z" fill="#302D2F"/>
<path d="M22.29 32.7262C22.29 32.6416 22.29 32.7121 22.1223 33.027C21.5147 34.1879 20.2678 35.3488 21.1701 36.6742C21.1882 36.3734 21.093 36.0303 21.093 35.7201C21.093 34.7425 22.29 33.9341 22.29 32.7262Z" fill="#302D2F"/>
<path d="M43.4279 55.5447C43.4732 55.211 43.4732 56.151 43.4732 51.7706V46.0788C43.446 46.0695 34.7768 43.381 34.1103 42.8828C34.6725 41.6326 35.9194 33.605 37.1391 34.3852C39.3064 35.7811 40.5261 27.9227 40.5261 26.6537C40.5986 26.1649 39.8505 25.5727 39.4197 25.8923C38.6625 26.1179 39.0298 25.9863 39.2293 24.5669C39.2882 24.1533 39.4288 24.4447 39.7054 23.7303C40.2676 22.2451 39.9185 22.0383 40.0409 21.7798C40.4671 20.8821 39.8958 19.881 40.0001 19.0162C40.0908 18.2501 39.8278 16.1116 38.5673 15.5852C38.0141 15.5335 37.4383 15.0682 37.4247 15.04C37.5381 14.3538 36.6721 12.3798 34.7723 11.6231C34.1511 10.8711 32.3873 9.77599 31.3082 9.93109C31.1087 9.95929 29.6124 9.30129 28.2295 9.24959C28.0436 9.24489 27.8985 9.43289 27.7353 9.34359C27.4859 9.21199 27.2728 9.31539 27.1141 9.27309C26.6244 9.13679 26.5201 9.48459 26.0849 9.37179C25.3458 9.17909 25.2188 9.84179 24.5569 9.77599C24.2168 9.74779 23.3961 10.3682 21.8908 11.1625C20.8525 11.703 20.5578 12.5584 19.9683 12.9062C19.2746 13.3104 18.9391 14.6405 18.8167 14.7157C18.2907 15.04 18.5129 16.074 18.2227 16.6239C17.4202 18.1185 17.5471 22.4848 17.6151 23.6222C17.139 23.7961 17.0121 23.8055 17.0212 24.0076C17.0348 24.2708 16.9939 24.581 17.13 24.7408C17.6469 25.3424 17.1798 27.2365 18.2 28.4444C18.2907 28.5525 18.5401 30.1317 18.5401 30.9401C18.5401 31.6451 18.3542 32.0869 18.3542 32.6744C18.3542 33.6896 18.9436 34.1643 18.9436 35.6213C18.9436 39.5693 19.4877 37.7833 18.4222 39.1369C15.3299 43.0896 15.7199 42.0979 10.8955 43.381C10.8955 44.4385 10.8955 45.4067 10.891 46.295C10.8819 57.2085 10.8275 56.0805 11.0406 56.0805C18.3043 56.0805 23.9538 56.0899 28.3429 56.0993C29.4492 56.0993 30.4739 56.104 31.4261 56.104C45.3776 56.1275 43.3644 56.1134 43.4279 55.5447ZM18.2408 27.7112C17.6831 26.4751 18.0187 25.2202 18.259 25.0463C18.1592 25.709 18.1365 26.8135 18.2408 27.7112ZM20.6711 13.7898C21.2696 14.2363 24.7926 13.9308 25.5861 13.7005C26.3342 14.0765 27.2819 14.1282 28.1479 13.7428C28.9459 13.9778 29.6079 13.9073 30.0976 13.8791C30.2381 13.9637 32.1561 15.1105 32.8044 15.3831C34.0105 15.9001 36.2141 15.5946 36.8171 16.1539C37.3204 16.6192 36.2866 17.7237 35.7199 18.9786C34.6226 21.4226 37.733 21.9349 35.7879 24.2755C34.0241 25.1873 31.1087 22.5929 27.6265 24.2567C25.1418 25.4364 25.2279 25.0604 24.9831 25.2719C24.7881 25.4458 25.0012 25.239 24.0082 24.8066C19.3925 22.8185 19.9774 23.6645 19.8006 23.4483C16.5451 25.2249 19.6192 14.2269 20.6711 13.7898ZM29.5761 26.1555C28.9414 26.1555 28.5016 26.5926 28.5016 26.3764C28.5016 26.2166 29.0638 25.2954 30.1928 25.2954C31.8885 25.2954 31.4306 26.3764 30.7868 26.3764C30.3651 26.3764 30.1248 26.1555 29.5761 26.1555ZM29.5988 26.5691C29.5943 26.6114 29.5535 26.6537 29.5127 26.7195C29.2406 26.4046 29.6124 26.4328 29.5988 26.5691ZM28.6013 27.0203C28.6013 27.5796 29.0683 27.9086 29.5489 27.9086C30.4014 27.9086 30.6779 26.9921 30.4648 26.6208C30.9636 27.0297 32.011 26.4328 32.011 27.5937C32.011 28.952 31.0089 30.5547 28.9822 30.0095C27.6355 29.6476 27.3091 27.73 28.0119 27.2741C28.2658 27.1237 28.4608 27.26 28.6013 27.0203ZM19.4197 26.0098C19.5421 26.0991 19.4514 26.2871 19.796 26.461C19.9457 26.5362 19.8368 26.6349 19.8368 26.649C19.7915 27.0485 20.0227 26.7336 20.0227 26.6678C20.0318 26.2495 20.059 26.3153 20.1225 26.2166C20.3447 26.4563 20.254 27.0156 20.848 27.0485C21.3104 27.072 21.5689 26.3435 21.5598 25.9769C25.1236 27.9697 21.8047 25.0181 20.0817 25.521C20.9749 24.5575 22.317 25.1638 22.9926 25.3753C23.5004 25.5351 23.7498 27.3305 22.5845 28.6982C20.8752 29.9531 19.5059 29.5865 18.6126 28.3504C18.9028 24.7455 18.2182 25.1403 19.4197 26.0098ZM21.0112 25.9816C21.0021 26.0333 20.9613 26.0709 20.9205 26.1414C20.6439 25.8406 21.0339 25.8923 21.0112 25.9816ZM27.8985 55.4789C27.8305 54.4496 27.7217 53.2887 27.3363 52.5696C27.2864 51.3006 27.9892 51.6437 27.8713 51.0421C27.3318 48.2362 27.9167 48.2691 27.3998 47.7051C26.9464 48.4148 27.2955 48.9835 26.0667 52.3581C22.7568 46.0648 18.4993 42.2624 19.3472 39.3719C19.9955 41.2942 21.2198 41.924 21.6732 42.817C21.6868 42.4363 21.6278 42.1214 21.519 41.7501C22.3896 42.1308 22.6933 42.8499 23.0651 43.7053C22.6707 39.6586 19.2111 41.8817 19.2111 36.5002C19.2111 36.0537 19.3245 35.5978 19.3245 35.1513C19.3245 34.2536 18.7532 33.6191 18.7532 32.6979C18.7532 31.6592 19.2565 30.1928 18.8711 29.1823C20.2812 30.4466 21.6369 29.9531 22.9473 28.9191C24.049 28.0496 23.4687 25.3894 25.5952 26.2683C25.8944 26.3905 25.7901 26.4845 25.7448 27.1331C25.7312 27.3352 25.7629 27.542 25.7176 27.7488C26.1756 29.3797 24.7972 31.6592 25.9715 31.9083C25.9307 32.0728 25.9534 31.9224 25.7312 32.0681C25.6133 32.148 25.5634 31.9459 25.4093 32.1527C24.2032 33.7084 22.911 32.3642 24.4208 33.5439C24.8924 33.9152 27.3318 34.5779 27.826 33.9998C28.3519 33.3888 28.0119 32.5381 27.1957 30.7615C27.4451 29.4361 28.8144 30.6111 29.5127 30.6111C32.4281 31.1281 33.3077 27.7817 33.9516 27.7112C34.405 27.6642 34.6453 27.4621 34.8312 27.589C35.4932 31.0623 32.2467 30.0988 32.2467 35.3299C32.2467 35.8563 31.8477 37.9948 31.4306 38.9019C30.7641 40.3542 30.3923 40.0205 29.4265 40.5704C28.1207 41.313 26.4793 42.7841 25.3367 42.7841C24.9559 42.7841 24.5705 42.7183 24.1941 42.7183C22.1628 42.7183 26.5564 44.1471 26.5836 44.1565C26.969 44.3398 27.0506 44.7487 27.4814 44.885C27.8577 45.0072 29.1409 44.932 29.1409 45.496C29.1409 45.9849 28.4744 46.3937 28.2114 46.7556C29.1001 46.8544 29.9389 46.1258 30.7051 45.7545C34.8765 43.7382 32.5868 43.2071 34.1828 45.4913C34.1057 45.9331 33.9969 46.3702 33.8382 46.7932C32.9133 49.2702 34.9854 61.7017 32.1289 51.9257C31.4351 49.5569 31.7026 47.0048 30.6235 47.0753C30.4376 47.0894 30.0023 46.9672 30.0023 47.1035C30.0023 47.4277 30.5192 47.1222 30.9636 47.7662C31.6709 49.3172 30.7414 49.4253 30.7868 49.7872C30.8004 49.8483 30.8774 50.4405 30.8366 50.4405C30.8366 51.1643 29.9162 50.9528 29.9434 50.9528C29.4356 51.0421 27.4814 51.8317 27.8668 52.1325C28.157 52.3628 29.2452 51.1314 30.551 51.6672C31.5213 52.0714 30.3651 52.0996 32.5959 55.3896C32.419 55.3473 28.7917 55.3332 27.8985 55.4789Z" fill="#302D2F"/>
</g>
</svg>
