<svg width="62" height="154" viewBox="0 0 62 154" fill="none" xmlns="http://www.w3.org/2000/svg">
<path d="M56.5362 7.98968L56.5235 7.91364L56.5062 7.83853C56.082 6.00042 55.1243 4.51879 53.5424 3.65594C52.1054 2.87213 50.497 2.79515 49.1164 2.90492C44.2569 3.11019 39.6194 3.71243 34.8485 4.50322C33.8361 4.5262 32.8248 4.70037 31.9255 4.85524C31.7663 4.88264 31.6107 4.90945 31.4592 4.9347L31.3607 4.95111L31.2639 4.97532C31.0637 5.02537 30.8335 5.07602 30.5802 5.13176C29.3021 5.41298 27.4346 5.82391 25.8503 6.94277C24.5698 7.80546 23.7096 8.90803 23.056 9.90273C22.7469 10.3731 22.461 10.8562 22.2074 11.285C22.1934 11.3087 22.1795 11.3322 22.1657 11.3555C21.8956 11.8117 21.6563 12.2132 21.4036 12.5937C18.4793 16.788 14.0095 20.3667 9.52383 23.2941C5.68733 25.6998 3.79272 29.0187 3.02343 32.6876C2.28268 36.2205 2.58605 40.0815 2.98552 43.6768L2.99214 43.7364L3.00162 43.7957C3.34656 45.9515 3.49611 48.1125 3.65472 50.4043C3.67011 50.6267 3.68558 50.8503 3.70133 51.0752C3.87153 53.5067 4.07291 56.0746 4.57601 58.6736C4.62348 59.7896 4.99471 61.5825 6.82156 62.5689C8.57417 63.6366 10.4351 62.9005 11.2898 62.4853C12.0554 62.1767 12.8006 61.848 13.5038 61.5368L13.5968 61.4957C14.3058 61.1818 14.9709 60.8875 15.6372 60.6164C16.8765 60.1123 18.0213 59.7314 19.1695 59.5411C19.17 59.5618 19.1702 59.5817 19.1702 59.6007V59.6364L19.1712 59.6721C19.3685 66.5774 19.1718 73.3012 18.7744 80.2564C18.4487 85.7966 18.6426 91.2302 18.8344 96.602C18.8828 97.9567 18.931 99.3075 18.9707 100.655L18.9788 101.227C19.1759 115.221 19.3759 129.425 19.7703 143.437C19.7717 144.301 19.8242 145.393 20.1046 146.445C20.3739 147.455 20.9223 148.679 22.0858 149.542C23.0116 150.368 24.0721 150.615 24.8582 150.689C25.3893 150.74 26.1254 150.717 26.4828 150.706C26.5718 150.703 26.6372 150.701 26.6702 150.701H26.7283L26.7864 150.698L52.5313 149.501C53.2312 149.497 54.0658 149.438 54.882 149.204C55.6835 148.975 56.6321 148.53 57.3556 147.647C58.7866 146.118 58.7759 144.24 58.7708 143.342C58.7705 143.301 58.7703 143.262 58.7703 143.225C59.1702 123.818 59.3702 104.609 59.3702 85.4007C59.3702 70.7851 59.1701 55.9549 58.5688 41.3157C58.3678 33.8891 57.9665 26.4602 57.3645 19.2279C57.3188 18.4 57.2836 17.5325 57.2472 16.6394C57.1343 13.8637 57.0113 10.8402 56.5362 7.98968Z" fill="#8AC988" stroke="#2F2C2F" stroke-width="5"/>
</svg>
