<svg width="98" height="153" viewBox="0 0 98 153" fill="none" xmlns="http://www.w3.org/2000/svg">
<path d="M76.3904 11.0713L76.3813 11.0638L76.3722 11.0564C71.9627 7.48677 66.7755 4.62993 61.0198 3.73481C57.5492 3.08932 53.9281 3.0966 50.3837 3.50765C46.6235 3.7222 42.8714 4.3514 39.13 5.39068L39.0939 5.40071L39.0582 5.41182C32.8081 7.35149 27.6503 10.8008 23.3888 15.2753L23.3801 15.2845L23.3715 15.2937C14.5211 24.7762 9.59792 38.6995 6.57879 50.3735L6.57625 50.3833L6.5738 50.3931C2.0883 68.3351 2.49929 87.0344 2.89718 105.137L2.89974 105.254L2.9 105.264C3.31638 121.295 9.5895 134.023 19.985 141.733C30.3695 149.434 44.5187 151.869 60.1941 148.028L60.2055 148.025C66.0667 146.56 71.8818 144.01 76.4764 139.853L76.5228 139.811L76.5669 139.767C78.2313 138.103 79.9285 136.199 81.4309 134.056C91.2879 120.618 93.6939 102.765 94.4959 87.1275L94.496 87.1243C94.526 86.5256 94.5566 85.9204 94.5875 85.3092C95.1732 73.7375 95.8685 59.9994 94.0499 47.0274C92.1333 33.355 87.3752 20.1364 76.3904 11.0713ZM43.2571 57.256L43.2587 57.2475L43.2602 57.239C43.6768 54.9063 44.7227 53.1695 45.9747 52.205C47.1418 51.3061 48.6584 50.9321 50.5726 51.5593C52.525 52.29 53.8923 54.0846 54.8274 56.89C55.7643 59.7005 56.1035 63.0574 56.3029 66.1377C56.9084 79.2593 57.3967 92.212 52.0843 102.055C51.8492 102.38 51.6325 102.71 51.4642 102.967C51.4106 103.049 51.3618 103.124 51.319 103.188C51.2139 103.345 51.1283 103.468 51.0553 103.566C51.0477 103.565 51.0396 103.564 51.031 103.563C50.8952 103.546 50.6165 103.462 50.2049 103.182C49.3617 102.609 48.4456 101.542 47.7698 100.359L47.7624 100.346L47.7549 100.333C40.8124 88.5125 40.6954 71.0499 43.2571 57.256Z" fill="#78CCF3" stroke="#2F2C2F" stroke-width="5"/>
</svg>
