<svg width="93" height="147" viewBox="0 0 93 147" fill="none" xmlns="http://www.w3.org/2000/svg">
<path d="M9.31573 23.5935L9.29712 23.6157L9.27903 23.6383C9.23489 23.6935 9.19036 23.7491 9.14548 23.8052C7.64859 25.6745 5.76615 28.0253 5.02136 30.9325C4.24263 33.552 4.87109 35.9876 6.09612 38.032C7.29689 40.0358 9.12733 41.7783 11.0233 43.2499C13.9752 45.5413 17.5697 47.5215 20.1422 48.9386C20.8341 49.3198 21.4521 49.6603 21.9637 49.9551L21.9698 49.9587C22.9366 50.5388 23.981 51.1655 25.2304 51.7946C25.8205 52.1423 26.6273 52.5511 27.5249 52.7754C28.4505 53.0069 29.8191 53.1228 31.1174 52.3438L31.1685 52.3132L31.218 52.2802C32.0362 51.7347 32.5243 50.9442 32.7871 50.4515C33.0621 49.9359 33.2563 49.4223 33.3795 49.0603C36.0809 42.2718 41.7263 37.7804 48.4863 37.087L48.5646 37.079L48.6422 37.0661C49.5546 36.914 50.4615 36.9115 51.3737 37.0584C51.8215 37.1576 52.447 37.487 53.1312 38.0001L53.208 38.0577L53.289 38.1092C55.1226 39.276 56.5205 41.1429 56.7652 42.6111L56.7762 42.6771L56.7907 42.7424C57.3331 45.183 56.0224 47.6971 53.9112 51.0751L53.9021 51.0896L53.8932 51.1043C52.8355 52.8496 51.8051 54.5983 50.7804 56.3371C47.8481 61.3133 44.9635 66.2086 41.6234 70.7104L41.6176 70.7184C33.8497 81.2748 25.6946 91.6166 17.1521 101.351L17.147 101.357L17.142 101.363C15.8599 102.842 14.5258 104.325 13.173 105.828L13.1653 105.836C11.8404 107.308 10.4977 108.8 9.20025 110.296C7.21486 112.285 4.90138 114.785 3.70388 117.887C1.34437 123.804 3.06746 130.219 4.64176 135.335L4.66392 135.407L4.69038 135.478C4.74171 135.615 4.79768 135.768 4.85816 135.935C5.09795 136.593 5.40857 137.446 5.78167 138.216C6.2526 139.187 6.96298 140.345 8.12149 141.193C9.62744 142.375 11.5217 142.85 13.0497 143.071C23.1005 144.725 33.1312 143.988 42.9295 142.91C44.8636 142.697 46.7848 142.472 48.696 142.248C56.5721 141.325 64.2775 140.421 72.0057 140.5L72.0184 140.5H72.0312H72.1427C74.1703 140.5 76.6828 140.5 79.0078 140.024C81.392 139.536 83.9296 138.48 85.6405 136.088C86.6317 134.794 87.1298 133.319 87.4377 132.032C87.6426 131.174 87.8002 130.204 87.9324 129.39C87.9893 129.04 88.0416 128.718 88.0909 128.447L88.1157 128.311L88.1253 128.172C88.3234 125.3 88.5713 122.472 88.8215 119.645L88.854 119.279C89.0928 116.581 89.3318 113.881 89.5249 111.178L89.5312 111.089V111V110.976C89.5313 110.784 89.5314 110.428 89.4938 110.051C89.4573 109.686 89.3678 109.083 89.0673 108.482L88.9977 108.343L88.9113 108.213C87.7807 106.517 85.8306 106.3 84.8312 106.3C75.4877 106.3 66.3704 107.113 57.4934 108.323L57.4722 108.326L57.4511 108.329C56.194 108.523 55.0498 108.63 54.1001 108.537C53.2352 108.452 52.7961 108.228 52.5598 108.002C52.3231 107.642 52.2049 107.049 52.5954 105.913C53.0111 104.704 53.8584 103.368 54.7927 102.151C67.158 86.941 76.8873 69.7085 83.5778 51.2624C86.7954 42.6128 89.5269 32.0187 85.7561 22.4809L85.7488 22.4625L85.7412 22.4442C83.0579 15.9594 77.7489 11.1638 71.7492 8.16401C65.7406 5.15967 58.9753 3.91707 52.5922 3.50525L52.5852 3.50483C35.4332 2.44606 20.1126 10.7203 9.31573 23.5935Z" fill="#F9C014" stroke="#2F2C2F" stroke-width="5"/>
</svg>
