<svg width="100" height="146" viewBox="0 0 100 146" fill="none" xmlns="http://www.w3.org/2000/svg">
<path d="M12.518 43.8001L12.5287 43.8081L12.5396 43.8161C15.5404 46.0167 19.3812 48.6071 23.3547 49.9474C23.3783 49.9569 23.4021 49.9665 23.4264 49.9762C24.2481 50.3065 25.481 50.802 26.8231 50.8873C27.5836 51.0789 28.5042 51.1395 29.3924 50.8567C30.0307 50.7592 30.5368 50.5143 30.9042 50.2938C31.1231 50.1625 31.3197 50.0229 31.4523 49.9282C31.4803 49.9082 31.5062 49.8896 31.5305 49.8722C31.6398 49.794 31.7174 49.7384 31.8047 49.6802L31.926 49.5993L32.0371 49.5049C33.7466 48.0519 35.2215 46.3628 36.5538 44.8372C36.9139 44.4247 37.2637 44.0242 37.6048 43.6435C39.2689 41.7864 40.8918 40.1896 43.0139 38.9957C44.5681 38.1761 46.7991 37.2798 48.8438 37.0319C50.847 36.7891 52.0101 37.2092 52.6549 38.0696C53.2999 39.4566 53.4677 41.2024 53.1667 42.9058C52.1559 47.3753 49.034 50.2623 44.9456 53.9418L44.8967 53.9858L44.8502 54.0323C40.9989 57.8836 36.7384 61.1819 32.0312 64.32L31.9735 64.3584L31.918 64.4001C31.8776 64.4303 31.8233 64.4697 31.7582 64.5168C31.4433 64.7449 30.8788 65.1537 30.4502 65.5823C29.8641 66.1685 29.118 67.1679 29.118 68.6001C29.118 69.5002 29.357 70.3656 29.8305 71.0602C31.4704 75.0957 33.4894 78.9113 35.6848 82.5037L35.7671 82.6385L35.8658 82.7618C35.9171 82.8259 35.9764 82.9019 36.0428 82.9869C36.3619 83.3958 36.8438 84.013 37.3736 84.515C38.0809 85.185 39.0857 85.878 40.4644 86.075L40.6403 86.1001H40.818C41.8299 86.1001 42.9393 85.7949 43.6086 85.5718L43.6368 85.5624L43.6648 85.5523C46.0969 84.6767 48.7238 83.9461 51.0655 83.925C53.3374 83.9045 55.0464 84.5379 56.218 86.1001L56.2311 86.1176L56.2446 86.1349C57.1701 87.3249 57.518 88.8911 57.518 90.6001V90.6596L57.5208 90.719C57.6867 94.2025 56.3602 97.7678 53.9648 100.521C51.4249 103.215 48.0305 104.757 44.4119 105.108C42.3702 105.244 39.7552 104.342 37.6485 102.949C35.9796 101.719 34.835 99.8381 33.4063 97.3898C33.0876 96.796 32.6684 96.4129 32.4184 96.2045C32.3144 96.1178 32.1997 96.0301 32.1483 95.9907C32.1409 95.9851 32.1349 95.9804 32.1303 95.9769L31.7684 95.615L31.2085 95.4284C29.7339 94.9368 28.4324 95.4132 27.7949 95.7176C25.1831 96.7895 22.5894 97.8758 20.0055 98.958C14.8269 101.127 9.68767 103.279 4.52052 105.267L2.91797 105.883V107.6C2.91797 110.35 4.29519 112.794 5.20716 114.412C5.28619 114.553 5.36173 114.687 5.43258 114.814L5.45598 114.856L5.481 114.898C8.90846 120.543 12.8684 126.414 18.1654 131.076C25.3515 137.416 34.4324 141.428 43.9419 142.485L43.9543 142.486C57.6588 143.94 73.0996 140.455 83.1877 130.166C96.077 117.474 100.729 96.2053 93.7248 79.4365L93.7221 79.4299C92.0035 75.3483 89.3854 71.3774 85.7944 68.4598L85.7029 68.3854L85.6047 68.32L85.5139 68.2594C83.7797 67.1031 81.8039 65.7856 79.5705 64.8885C78.9339 64.6211 78.2622 64.4979 77.8327 64.4223C77.705 64.3998 77.591 64.3803 77.4877 64.3626C77.2642 64.3243 77.09 64.2945 76.9328 64.2614C76.9574 64.1765 76.9883 64.0767 77.0292 63.9458L77.0361 63.9235C77.0793 63.7855 77.135 63.6073 77.1885 63.414C78.1549 61.1499 79.297 58.8146 80.5022 56.3504C80.7996 55.7423 81.1009 55.1263 81.4043 54.5017C82.9466 51.3261 84.5209 47.9704 85.7685 44.5266C88.2599 37.6493 89.5644 30.1077 86.5486 22.4954C84.0503 15.9271 78.4783 11.1352 72.536 8.16401C66.5361 5.16407 59.9765 3.918 53.5789 3.50525L53.5701 3.50471C36.2248 2.44707 20.9036 10.7153 10.1025 23.5935L10.0839 23.6157L10.0658 23.6383C10.0217 23.6935 9.97712 23.7491 9.93224 23.8052C8.43165 25.6791 6.54359 28.0369 5.80261 30.9541C4.94585 34.0083 5.96724 36.7206 7.41571 38.8027C8.8475 40.8609 10.8552 42.553 12.518 43.8001Z" fill="#EE6B6C" stroke="#2F2C2F" stroke-width="5"/>
</svg>
