<svg width="32" height="32" viewBox="0 0 32 32" fill="none" xmlns="http://www.w3.org/2000/svg">
<path d="M31.5496 5.99573C31.7748 6.58111 31.8649 7.21152 32 7.79691C31.955 8.29223 31.7748 8.65247 31.4595 8.96767C24.6133 15.8572 17.767 22.7017 10.8757 29.5912C10.6055 29.8614 10.3352 29.9965 9.97492 30.0865C7.00221 30.7169 4.0295 31.3473 1.10183 31.9778C0.426215 32.1129 -0.114279 31.6175 0.0208442 30.8971C0.651419 27.9251 1.28199 24.9081 1.91257 21.9362C1.95761 21.666 2.13777 21.3508 2.36298 21.1256C4.34479 19.1443 6.3266 17.163 8.26336 15.1817C13.1728 10.2735 18.0823 5.41034 22.9467 0.502125C23.3071 0.141889 23.7124 -0.0382294 24.1629 0.00680015C24.7033 0.0968592 25.2889 0.141889 25.7843 0.322007C28.4868 1.44774 30.3785 3.33899 31.5496 5.99573ZM8.98402 28.1953C8.84889 27.745 8.75881 27.2947 8.57865 26.8894C7.72287 25.3584 6.5518 24.1426 4.97536 23.3771C4.52495 23.152 4.07454 23.0169 3.48901 23.0619C3.21876 24.3227 2.94851 25.5385 2.72331 26.7543C4.0295 26.9795 5.06545 27.9701 5.33569 29.276C6.50676 29.0508 7.63278 28.7807 8.80385 28.5555C8.93898 28.5105 9.02906 28.4204 8.98402 28.1953Z" fill="#2F2C2F"/>
</svg>
