<svg width="41" height="21" viewBox="0 0 41 21" fill="none" xmlns="http://www.w3.org/2000/svg">
<path d="M2.22 0.676C2.35333 0.622666 2.48667 0.576 2.62 0.536C2.75333 0.496 2.88667 0.449333 3.02 0.396C3.07333 0.382666 3.12 0.369333 3.16 0.356C3.21333 0.342667 3.26667 0.336 3.32 0.336C3.45333 0.349334 3.56 0.409333 3.64 0.515999C3.73333 0.622666 3.81333 0.729333 3.88 0.836C4.10667 1.20933 4.34 1.58267 4.58 1.956C4.83333 2.316 5.09333 2.66933 5.36 3.016C5.38667 3.056 5.41333 3.096 5.44 3.136C5.48 3.176 5.52 3.20933 5.56 3.236C5.68 3.276 5.80667 3.26267 5.94 3.196C6.03333 3.14267 6.12667 3.056 6.22 2.936C6.52667 2.536 6.76 2.10267 6.92 1.636C7.09333 1.16933 7.27333 0.702666 7.46 0.235999C7.48667 0.196 7.50667 0.162667 7.52 0.135999C7.53333 0.096 7.56 0.0626667 7.6 0.0359995C7.66667 -0.00399995 7.75333 -0.0106665 7.86 0.0159998C8.04667 0.0426669 8.22667 0.0760002 8.4 0.116C8.58667 0.156 8.77333 0.189333 8.96 0.216C9.13333 0.242667 9.3 0.269333 9.46 0.296C9.63333 0.322667 9.8 0.369334 9.96 0.436C10.04 0.476 10.1 0.522666 10.14 0.576C10.1667 0.602667 10.18 0.662667 10.18 0.756C10.18 0.916 10.16 1.076 10.12 1.236C10.08 1.396 10.0333 1.54933 9.98 1.696C9.80667 2.18933 9.62667 2.676 9.44 3.156C9.26667 3.62267 9.07333 4.08933 8.86 4.556C8.71333 4.86267 8.57333 5.16267 8.44 5.456C8.32 5.74933 8.20667 6.04933 8.1 6.356C8.07333 6.46267 8.04667 6.576 8.02 6.696C7.99333 6.80267 7.98667 6.916 8 7.036C8.01333 7.18267 8.05333 7.32267 8.12 7.456C8.38667 8.216 8.64667 8.96933 8.9 9.716C9.15333 10.4493 9.43333 11.1893 9.74 11.936C9.80667 12.0693 9.86667 12.2027 9.92 12.336C9.98667 12.456 10.04 12.5893 10.08 12.736C10.12 12.856 10.16 12.976 10.2 13.096C10.2533 13.2027 10.28 13.3227 10.28 13.456C10.28 13.4827 10.2667 13.5227 10.24 13.576C10.2267 13.6027 10.1933 13.6427 10.14 13.696C9.91333 13.8427 9.62 13.9427 9.26 13.996C8.91333 14.0493 8.62 14.0027 8.38 13.856C8.26 13.7893 8.15333 13.7027 8.06 13.596C7.98 13.4893 7.9 13.3827 7.82 13.276C7.60667 13.0093 7.41333 12.7293 7.24 12.436C7.06667 12.1427 6.90667 11.8427 6.76 11.536C6.73333 11.4693 6.7 11.4093 6.66 11.356C6.63333 11.2893 6.59333 11.2293 6.54 11.176C6.44667 11.056 6.32667 11.016 6.18 11.056C6.11333 11.0693 6.04 11.116 5.96 11.196C5.72 11.4227 5.49333 11.6627 5.28 11.916C5.08 12.1693 4.88 12.4293 4.68 12.696C4.48 12.9493 4.26667 13.2027 4.04 13.456C3.94667 13.5493 3.84667 13.6627 3.74 13.796C3.63333 13.916 3.51333 13.9893 3.38 14.016C3.27333 14.056 3.16 14.0493 3.04 13.996C2.66667 13.916 2.31333 13.7827 1.98 13.596C1.66 13.396 1.36667 13.1627 1.1 12.896C1.07333 12.8693 1.05333 12.8427 1.04 12.816C1.02667 12.7893 1.01333 12.756 1 12.716C1 12.676 1.01333 12.616 1.04 12.536C1.17333 12.1493 1.34667 11.796 1.56 11.476C1.78667 11.156 2.00667 10.8227 2.22 10.476C2.64667 9.796 3.03333 9.06933 3.38 8.296C3.43333 8.18933 3.47333 8.08267 3.5 7.976C3.54 7.856 3.56667 7.736 3.58 7.616C3.59333 7.44267 3.56667 7.276 3.5 7.116C3.44667 6.956 3.38667 6.796 3.32 6.636C3.05333 6.06267 2.79333 5.496 2.54 4.936C2.3 4.36267 2.06 3.78267 1.82 3.196C1.72667 2.96933 1.64667 2.74267 1.58 2.516C1.51333 2.28933 1.46667 2.056 1.44 1.816C1.42667 1.60267 1.44 1.40267 1.48 1.216C1.52 1.016 1.64667 0.876 1.86 0.796L2.22 0.676Z" fill="#2F2C2F"/>
<path d="M15.9075 0.676C16.0408 0.622666 16.1742 0.576 16.3075 0.536C16.4408 0.496 16.5742 0.449333 16.7075 0.396C16.7608 0.382666 16.8075 0.369333 16.8475 0.356C16.9008 0.342667 16.9542 0.336 17.0075 0.336C17.1408 0.349334 17.2475 0.409333 17.3275 0.515999C17.4208 0.622666 17.5008 0.729333 17.5675 0.836C17.7942 1.20933 18.0275 1.58267 18.2675 1.956C18.5208 2.316 18.7808 2.66933 19.0475 3.016C19.0742 3.056 19.1008 3.096 19.1275 3.136C19.1675 3.176 19.2075 3.20933 19.2475 3.236C19.3675 3.276 19.4942 3.26267 19.6275 3.196C19.7208 3.14267 19.8142 3.056 19.9075 2.936C20.2142 2.536 20.4475 2.10267 20.6075 1.636C20.7808 1.16933 20.9608 0.702666 21.1475 0.235999C21.1742 0.196 21.1942 0.162667 21.2075 0.135999C21.2208 0.096 21.2475 0.0626667 21.2875 0.0359995C21.3542 -0.00399995 21.4408 -0.0106665 21.5475 0.0159998C21.7342 0.0426669 21.9142 0.0760002 22.0875 0.116C22.2742 0.156 22.4608 0.189333 22.6475 0.216C22.8208 0.242667 22.9875 0.269333 23.1475 0.296C23.3208 0.322667 23.4875 0.369334 23.6475 0.436C23.7275 0.476 23.7875 0.522666 23.8275 0.576C23.8542 0.602667 23.8675 0.662667 23.8675 0.756C23.8675 0.916 23.8475 1.076 23.8075 1.236C23.7675 1.396 23.7208 1.54933 23.6675 1.696C23.4942 2.18933 23.3142 2.676 23.1275 3.156C22.9542 3.62267 22.7608 4.08933 22.5475 4.556C22.4008 4.86267 22.2608 5.16267 22.1275 5.456C22.0075 5.74933 21.8942 6.04933 21.7875 6.356C21.7608 6.46267 21.7342 6.576 21.7075 6.696C21.6808 6.80267 21.6742 6.916 21.6875 7.036C21.7008 7.18267 21.7408 7.32267 21.8075 7.456C22.0742 8.216 22.3342 8.96933 22.5875 9.716C22.8408 10.4493 23.1208 11.1893 23.4275 11.936C23.4942 12.0693 23.5542 12.2027 23.6075 12.336C23.6742 12.456 23.7275 12.5893 23.7675 12.736C23.8075 12.856 23.8475 12.976 23.8875 13.096C23.9408 13.2027 23.9675 13.3227 23.9675 13.456C23.9675 13.4827 23.9542 13.5227 23.9275 13.576C23.9142 13.6027 23.8808 13.6427 23.8275 13.696C23.6008 13.8427 23.3075 13.9427 22.9475 13.996C22.6008 14.0493 22.3075 14.0027 22.0675 13.856C21.9475 13.7893 21.8408 13.7027 21.7475 13.596C21.6675 13.4893 21.5875 13.3827 21.5075 13.276C21.2942 13.0093 21.1008 12.7293 20.9275 12.436C20.7542 12.1427 20.5942 11.8427 20.4475 11.536C20.4208 11.4693 20.3875 11.4093 20.3475 11.356C20.3208 11.2893 20.2808 11.2293 20.2275 11.176C20.1342 11.056 20.0142 11.016 19.8675 11.056C19.8008 11.0693 19.7275 11.116 19.6475 11.196C19.4075 11.4227 19.1808 11.6627 18.9675 11.916C18.7675 12.1693 18.5675 12.4293 18.3675 12.696C18.1675 12.9493 17.9542 13.2027 17.7275 13.456C17.6342 13.5493 17.5342 13.6627 17.4275 13.796C17.3208 13.916 17.2008 13.9893 17.0675 14.016C16.9608 14.056 16.8475 14.0493 16.7275 13.996C16.3542 13.916 16.0008 13.7827 15.6675 13.596C15.3475 13.396 15.0542 13.1627 14.7875 12.896C14.7608 12.8693 14.7408 12.8427 14.7275 12.816C14.7142 12.7893 14.7008 12.756 14.6875 12.716C14.6875 12.676 14.7008 12.616 14.7275 12.536C14.8608 12.1493 15.0342 11.796 15.2475 11.476C15.4742 11.156 15.6942 10.8227 15.9075 10.476C16.3342 9.796 16.7208 9.06933 17.0675 8.296C17.1208 8.18933 17.1608 8.08267 17.1875 7.976C17.2275 7.856 17.2542 7.736 17.2675 7.616C17.2808 7.44267 17.2542 7.276 17.1875 7.116C17.1342 6.956 17.0742 6.796 17.0075 6.636C16.7408 6.06267 16.4808 5.496 16.2275 4.936C15.9875 4.36267 15.7475 3.78267 15.5075 3.196C15.4142 2.96933 15.3342 2.74267 15.2675 2.516C15.2008 2.28933 15.1542 2.056 15.1275 1.816C15.1142 1.60267 15.1275 1.40267 15.1675 1.216C15.2075 1.016 15.3342 0.876 15.5475 0.796L15.9075 0.676Z" fill="#2F2C2F"/>
<path d="M29.595 0.676C29.7283 0.622666 29.8617 0.576 29.995 0.536C30.1283 0.496 30.2617 0.449333 30.395 0.396C30.4483 0.382666 30.495 0.369333 30.535 0.356C30.5883 0.342667 30.6417 0.336 30.695 0.336C30.8283 0.349334 30.935 0.409333 31.015 0.515999C31.1083 0.622666 31.1883 0.729333 31.255 0.836C31.4817 1.20933 31.715 1.58267 31.955 1.956C32.2083 2.316 32.4683 2.66933 32.735 3.016C32.7617 3.056 32.7883 3.096 32.815 3.136C32.855 3.176 32.895 3.20933 32.935 3.236C33.055 3.276 33.1817 3.26267 33.315 3.196C33.4083 3.14267 33.5017 3.056 33.595 2.936C33.9017 2.536 34.135 2.10267 34.295 1.636C34.4683 1.16933 34.6483 0.702666 34.835 0.235999C34.8617 0.196 34.8817 0.162667 34.895 0.135999C34.9083 0.096 34.935 0.0626667 34.975 0.0359995C35.0417 -0.00399995 35.1283 -0.0106665 35.235 0.0159998C35.4217 0.0426669 35.6017 0.0760002 35.775 0.116C35.9617 0.156 36.1483 0.189333 36.335 0.216C36.5083 0.242667 36.675 0.269333 36.835 0.296C37.0083 0.322667 37.175 0.369334 37.335 0.436C37.415 0.476 37.475 0.522666 37.515 0.576C37.5417 0.602667 37.555 0.662667 37.555 0.756C37.555 0.916 37.535 1.076 37.495 1.236C37.455 1.396 37.4083 1.54933 37.355 1.696C37.1817 2.18933 37.0017 2.676 36.815 3.156C36.6417 3.62267 36.4483 4.08933 36.235 4.556C36.0883 4.86267 35.9483 5.16267 35.815 5.456C35.695 5.74933 35.5817 6.04933 35.475 6.356C35.4483 6.46267 35.4217 6.576 35.395 6.696C35.3683 6.80267 35.3617 6.916 35.375 7.036C35.3883 7.18267 35.4283 7.32267 35.495 7.456C35.7617 8.216 36.0217 8.96933 36.275 9.716C36.5283 10.4493 36.8083 11.1893 37.115 11.936C37.1817 12.0693 37.2417 12.2027 37.295 12.336C37.3617 12.456 37.415 12.5893 37.455 12.736C37.495 12.856 37.535 12.976 37.575 13.096C37.6283 13.2027 37.655 13.3227 37.655 13.456C37.655 13.4827 37.6417 13.5227 37.615 13.576C37.6017 13.6027 37.5683 13.6427 37.515 13.696C37.2883 13.8427 36.995 13.9427 36.635 13.996C36.2883 14.0493 35.995 14.0027 35.755 13.856C35.635 13.7893 35.5283 13.7027 35.435 13.596C35.355 13.4893 35.275 13.3827 35.195 13.276C34.9817 13.0093 34.7883 12.7293 34.615 12.436C34.4417 12.1427 34.2817 11.8427 34.135 11.536C34.1083 11.4693 34.075 11.4093 34.035 11.356C34.0083 11.2893 33.9683 11.2293 33.915 11.176C33.8217 11.056 33.7017 11.016 33.555 11.056C33.4883 11.0693 33.415 11.116 33.335 11.196C33.095 11.4227 32.8683 11.6627 32.655 11.916C32.455 12.1693 32.255 12.4293 32.055 12.696C31.855 12.9493 31.6417 13.2027 31.415 13.456C31.3217 13.5493 31.2217 13.6627 31.115 13.796C31.0083 13.916 30.8883 13.9893 30.755 14.016C30.6483 14.056 30.535 14.0493 30.415 13.996C30.0417 13.916 29.6883 13.7827 29.355 13.596C29.035 13.396 28.7417 13.1627 28.475 12.896C28.4483 12.8693 28.4283 12.8427 28.415 12.816C28.4017 12.7893 28.3883 12.756 28.375 12.716C28.375 12.676 28.3883 12.616 28.415 12.536C28.5483 12.1493 28.7217 11.796 28.935 11.476C29.1617 11.156 29.3817 10.8227 29.595 10.476C30.0217 9.796 30.4083 9.06933 30.755 8.296C30.8083 8.18933 30.8483 8.08267 30.875 7.976C30.915 7.856 30.9417 7.736 30.955 7.616C30.9683 7.44267 30.9417 7.276 30.875 7.116C30.8217 6.956 30.7617 6.796 30.695 6.636C30.4283 6.06267 30.1683 5.496 29.915 4.936C29.675 4.36267 29.435 3.78267 29.195 3.196C29.1017 2.96933 29.0217 2.74267 28.955 2.516C28.8883 2.28933 28.8417 2.056 28.815 1.816C28.8017 1.60267 28.815 1.40267 28.855 1.216C28.895 1.016 29.0217 0.876 29.235 0.796L29.595 0.676Z" fill="#2F2C2F"/>
<path d="M9.95846 18.256C10.0518 18.256 10.1385 18.2627 10.2185 18.276C10.3118 18.276 10.3918 18.2893 10.4585 18.316C10.5918 18.3693 10.6585 18.4427 10.6585 18.536C10.6585 18.6293 10.6451 18.7227 10.6185 18.816C10.4985 19.1627 10.3251 19.516 10.0985 19.876C10.0585 19.9427 10.0118 20.0027 9.95846 20.056C9.91846 20.1093 9.85846 20.156 9.77846 20.196C9.6718 20.2627 9.54513 20.3027 9.39846 20.316C9.26513 20.3293 9.12513 20.336 8.97846 20.336L0.638462 20.756C0.571795 20.756 0.505128 20.756 0.438462 20.756C0.371795 20.756 0.311795 20.7427 0.258462 20.716C0.178462 20.676 0.125128 20.616 0.0984615 20.536C-0.00820512 20.2827 -0.0282051 20.0293 0.0384615 19.776C0.105128 19.536 0.191795 19.2893 0.298462 19.036C0.338462 18.9293 0.385128 18.8293 0.438462 18.736C0.491795 18.6427 0.571795 18.556 0.678462 18.476C0.771795 18.4093 0.891795 18.3627 1.03846 18.336C1.18513 18.296 1.33846 18.2693 1.49846 18.256C1.6718 18.2427 1.83846 18.236 1.99846 18.236C2.15846 18.236 2.31179 18.236 2.45846 18.236C2.88513 18.236 3.29846 18.236 3.69846 18.236C4.11179 18.2227 4.5318 18.216 4.95846 18.216C5.79846 18.216 6.63179 18.216 7.45846 18.216C8.28513 18.216 9.11846 18.2293 9.95846 18.256Z" fill="#2F2C2F"/>
<path d="M25.0131 18.256C25.1065 18.256 25.1931 18.2627 25.2731 18.276C25.3665 18.276 25.4465 18.2893 25.5131 18.316C25.6465 18.3693 25.7132 18.4427 25.7132 18.536C25.7132 18.6293 25.6998 18.7227 25.6731 18.816C25.5531 19.1627 25.3798 19.516 25.1531 19.876C25.1131 19.9427 25.0665 20.0027 25.0131 20.056C24.9732 20.1093 24.9131 20.156 24.8331 20.196C24.7265 20.2627 24.5998 20.3027 24.4531 20.316C24.3198 20.3293 24.1798 20.336 24.0331 20.336L15.6931 20.756C15.6265 20.756 15.5598 20.756 15.4931 20.756C15.4265 20.756 15.3665 20.7427 15.3131 20.716C15.2331 20.676 15.1798 20.616 15.1531 20.536C15.0465 20.2827 15.0265 20.0293 15.0931 19.776C15.1598 19.536 15.2465 19.2893 15.3531 19.036C15.3931 18.9293 15.4398 18.8293 15.4931 18.736C15.5465 18.6427 15.6265 18.556 15.7331 18.476C15.8265 18.4093 15.9465 18.3627 16.0931 18.336C16.2398 18.296 16.3931 18.2693 16.5531 18.256C16.7265 18.2427 16.8931 18.236 17.0531 18.236C17.2131 18.236 17.3665 18.236 17.5131 18.236C17.9398 18.236 18.3531 18.236 18.7531 18.236C19.1665 18.2227 19.5865 18.216 20.0131 18.216C20.8531 18.216 21.6865 18.216 22.5131 18.216C23.3398 18.216 24.1731 18.2293 25.0131 18.256Z" fill="#2F2C2F"/>
<path d="M40.0678 18.256C40.1612 18.256 40.2478 18.2627 40.3278 18.276C40.4212 18.276 40.5012 18.2893 40.5678 18.316C40.7012 18.3693 40.7678 18.4427 40.7678 18.536C40.7678 18.6293 40.7545 18.7227 40.7278 18.816C40.6078 19.1627 40.4345 19.516 40.2078 19.876C40.1678 19.9427 40.1212 20.0027 40.0678 20.056C40.0278 20.1093 39.9678 20.156 39.8878 20.196C39.7812 20.2627 39.6545 20.3027 39.5078 20.316C39.3745 20.3293 39.2345 20.336 39.0878 20.336L30.7478 20.756C30.6812 20.756 30.6145 20.756 30.5478 20.756C30.4812 20.756 30.4212 20.7427 30.3678 20.716C30.2878 20.676 30.2345 20.616 30.2078 20.536C30.1012 20.2827 30.0812 20.0293 30.1478 19.776C30.2145 19.536 30.3012 19.2893 30.4078 19.036C30.4478 18.9293 30.4945 18.8293 30.5478 18.736C30.6012 18.6427 30.6812 18.556 30.7878 18.476C30.8812 18.4093 31.0012 18.3627 31.1478 18.336C31.2945 18.296 31.4478 18.2693 31.6078 18.256C31.7812 18.2427 31.9478 18.236 32.1078 18.236C32.2678 18.236 32.4212 18.236 32.5678 18.236C32.9945 18.236 33.4078 18.236 33.8078 18.236C34.2212 18.2227 34.6412 18.216 35.0678 18.216C35.9078 18.216 36.7412 18.216 37.5678 18.216C38.3945 18.216 39.2278 18.2293 40.0678 18.256Z" fill="#2F2C2F"/>
</svg>
