<svg width="26" height="32" viewBox="0 0 26 32" fill="none" xmlns="http://www.w3.org/2000/svg">
<path d="M4.28347 1.3545e-05C3.14756 -0.0028453 2.05739 0.446949 1.25405 1.2493C0.450243 2.05168 -0.000973715 3.14093 1.57777e-06 4.27678V27.7232C-0.000951214 28.8591 0.450269 29.9483 1.25405 30.7507C2.05786 31.5531 3.1475 32.0029 4.28347 32C5.15589 31.9986 6.00591 31.726 6.71728 31.221L23.4647 19.4979C24.6059 18.6988 25.2859 17.3933 25.2859 16C25.2859 14.6068 24.6059 13.3013 23.4647 12.5027L6.71729 0.779608V0.779131C6.00592 0.274073 5.15585 0.00191751 4.28347 1.3545e-05Z" fill="#2F2C2F"/>
</svg>
