<svg width="62" height="64" viewBox="0 0 62 64" fill="none" xmlns="http://www.w3.org/2000/svg">
<path d="M48.9124 8.83407C43.6993 3.38326 36.537 0 28.5587 0C12.8287 0 0 13.2981 0 29.6035C0 37.8267 3.26385 45.2981 8.52228 50.6549C14.5967 57.0925 20.8524 63.953 33.1371 63.953C48.8671 63.953 61.6958 50.6549 61.6958 34.3495C61.7412 21.6153 55.0775 15.1777 48.9124 8.83407Z" fill="#2F2C2F"/>
<path d="M28.5588 55.8238C42.5287 55.8238 53.8536 44.0846 53.8536 29.6035C53.8536 15.1225 42.5287 3.38324 28.5588 3.38324C14.5888 3.38324 3.26392 15.1225 3.26392 29.6035C3.26392 44.0846 14.5888 55.8238 28.5588 55.8238Z" fill="#6D6768"/>
<mask id="mask0_53_192" style="mask-type:luminance" maskUnits="userSpaceOnUse" x="6" y="6" width="45" height="47">
<path d="M28.5588 52.4405C40.7262 52.4405 50.5898 42.2161 50.5898 29.6035C50.5898 16.991 40.7262 6.76654 28.5588 6.76654C16.3914 6.76654 6.52783 16.991 6.52783 29.6035C6.52783 42.2161 16.3914 52.4405 28.5588 52.4405Z" fill="white"/>
</mask>
<g mask="url(#mask0_53_192)">
<path d="M22.7562 23.5889C22.7109 24.1998 22.5749 24.7636 22.4842 25.3275C22.4842 25.5155 22.4389 25.7034 22.5296 25.8444C22.8469 26.3143 23.6175 26.2673 24.0708 26.3613C25.4308 26.6432 26.7907 26.8782 28.196 26.8782C29.6012 26.9252 30.9612 26.7372 32.3665 26.5492C32.4118 26.5492 32.4118 26.5492 32.4571 26.5492C32.9558 26.4553 33.4544 26.4083 33.9077 26.3143C33.953 26.3143 34.0437 26.3143 34.089 26.2673C34.4517 26.2203 34.769 25.9854 34.7237 25.5625C34.6783 24.9986 34.4517 24.4347 34.4064 23.8238C34.361 23.025 34.361 22.2262 34.4517 21.4274C34.5877 20.1586 34.7237 18.8899 34.769 17.5742C34.769 16.3995 34.8143 15.0368 34.4064 13.956C33.7264 12.1704 32.3664 10.7137 30.6439 10.0558C30.0092 9.8209 29.3293 9.67993 28.6493 9.67993C27.108 9.67993 25.6121 10.2908 24.5241 11.3246C23.2549 12.4993 22.6656 14.1909 22.5296 15.9296C22.3936 17.7152 22.5749 19.6418 22.8016 21.4744C22.7562 22.2262 22.8016 22.931 22.7562 23.5889ZM32.9104 16.6344C33.1371 17.7622 32.5024 18.8429 31.4145 19.1249C30.3265 19.3598 29.2839 18.702 29.0119 17.5742C28.7853 16.4465 32.6838 15.5067 32.9104 16.6344ZM29.3293 21.4274C30.0999 21.4274 30.6892 22.0852 30.6892 22.8371C30.6892 23.6359 30.0546 24.2467 29.3293 24.2467H27.8333C27.0627 24.2467 26.4734 23.5889 26.4734 22.8371C26.4734 22.0382 27.108 21.4274 27.8333 21.4274H29.3293ZM24.2068 16.6344C24.4335 15.5067 28.332 16.4465 28.1053 17.5742C27.8787 18.702 26.7907 19.3598 25.7028 19.1249C24.6601 18.8429 23.9802 17.7622 24.2068 16.6344Z" fill="#2F2C2F"/>
<path d="M48.2777 49.4332L44.6965 34.3965C44.4246 33.3157 43.6993 32.4699 42.6566 32.141L33.9077 29.1337L31.2332 44.2643H31.1878L29.6919 34.3025L30.6892 31.2952L29.6919 30.2614H27.4707L26.6094 31.2952L27.652 34.3025L26.1107 44.2174H26.0654L23.3002 29.0867L14.3699 32.4229C13.418 32.7989 12.6927 33.5977 12.4207 34.6315L8.79419 49.3862H16.3192V46.6138H16.7725L16.2738 43.4655L17.6791 41.351C17.4978 41.0221 17.4525 40.5991 17.6791 40.2232L21.1243 34.9604C21.4416 34.4905 22.0309 34.3495 22.4842 34.6784L22.9829 35.0074C23.4362 35.3363 23.5722 35.9472 23.2549 36.4171L19.8097 41.6799C19.583 42.0558 19.1297 42.1968 18.7671 42.1028L17.6791 43.7475L18.1324 46.5668H18.9031V53.5683H38.3048V46.6608H39.0755L39.5288 43.8414L38.4408 42.1968C38.0329 42.2908 37.6249 42.1498 37.3982 41.7739L33.953 36.511C33.6357 36.0411 33.7717 35.4303 34.225 35.1014L34.7237 34.7724C35.177 34.4435 35.7663 34.5845 36.0836 35.0544L39.5288 40.3172C39.7554 40.6461 39.7554 41.116 39.5288 41.445L40.9341 43.5595L40.4354 46.7078H40.8434V49.4802H48.2777V49.4332Z" fill="#2F2C2F"/>
</g>
</svg>
