<svg width="46" height="47" viewBox="0 0 46 47" fill="none" xmlns="http://www.w3.org/2000/svg">
<rect x="0.25" y="24.875" width="11.25" height="21.375" rx="2" fill="#2F2C2F"/>
<rect x="17.125" y="17" width="11.25" height="29.25" rx="2" fill="#2F2C2F"/>
<rect x="34" y="30.5" width="11.25" height="15.75" rx="2" fill="#2F2C2F"/>
<path d="M22.7369 10.3343L24.8939 11.513C25.8445 12.0453 26.9779 11.2088 26.7951 10.0681L26.3929 7.55856L28.1478 5.77147C28.9156 4.97298 28.4768 3.64216 27.4166 3.45204L25.0036 3.14786L23.9068 0.866455C23.4315 -0.122152 22.0422 -0.122152 21.5669 0.866455L20.4701 3.14786L18.0571 3.52809C16.9969 3.68018 16.5947 5.04902 17.3625 5.80949L19.1174 7.59659L18.7152 10.1061C18.5324 11.2088 19.6658 12.0453 20.6164 11.551L22.7369 10.3343Z" fill="#2F2C2F"/>
</svg>
