<svg width="46" height="44" viewBox="0 0 46 44" fill="none" xmlns="http://www.w3.org/2000/svg">
<path fill-rule="evenodd" clip-rule="evenodd" d="M19.5958 41.9668C19.1752 43.3126 17.6612 43.9855 16.3995 43.5649L15.1379 43.1443C13.7921 42.7238 13.035 41.2939 13.4556 39.9481V39.864C13.8762 38.5182 13.2874 36.7518 12.1939 35.9948L12.6145 36.3313C11.521 35.4901 9.67056 35.4901 8.49299 36.3313L8.40888 36.4154C7.23131 37.2565 5.71729 36.92 4.87617 35.8266L4.11916 34.7331C3.27804 33.6397 3.53037 32.0415 4.62383 31.2004L4.70794 31.1163C5.8014 30.2752 6.39019 28.5088 5.96963 27.163L6.13785 27.6677C5.71729 26.3219 4.20327 25.2285 2.85748 25.2285H2.77336C1.34346 25.2285 0.25 24.0509 0.25 22.7051V21.2752C0.25 19.8453 1.42757 18.7518 2.77336 18.7518H2.85748C4.28738 18.7518 5.71729 17.6584 6.13785 16.3126L5.96963 16.8172C6.39019 15.4714 5.88551 13.7051 4.79206 12.864H4.70794C3.61449 12.0228 3.36215 10.4247 4.20327 9.33126L4.96028 8.2378C5.8014 7.14434 7.39953 6.89201 8.49299 7.64902L8.5771 7.73313C9.75467 8.57425 11.521 8.49014 12.6986 7.73313L12.278 8.06958C13.3715 7.22846 13.9603 5.54621 13.5397 4.20042V4.11631C13.1192 2.77051 13.8762 1.34061 15.222 0.920047L16.4836 0.499486C17.8294 0.0789253 19.2593 0.751822 19.6799 2.09762V2.18173C20.1005 3.52752 21.6145 4.53687 23.0444 4.53687H22.5397C23.9696 4.53687 25.3995 3.44341 25.9042 2.18173V2.09762C26.3248 0.751822 27.8388 0.0789253 29.1005 0.499486L30.3621 0.920047C31.7079 1.34061 32.465 2.77051 32.0444 4.11631V4.20042C31.6238 5.54621 32.2126 7.31257 33.3061 8.06958L32.8855 7.73313C33.979 8.57425 35.8294 8.57425 37.007 7.73313L37.0911 7.64902C38.2687 6.8079 39.7827 7.14434 40.6238 8.2378L41.3808 9.33126C42.222 10.4247 41.9696 12.0228 40.8762 12.864H40.7079C39.6145 13.7051 39.0257 15.4714 39.4463 16.8172L39.278 16.3126C39.6986 17.6584 41.2126 18.7518 42.5584 18.7518H42.6425C44.0724 18.7518 45.1659 19.9294 45.1659 21.2752V22.621C45.1659 24.0509 43.9883 25.1443 42.6425 25.1443H42.5584C41.1285 25.1443 39.6986 26.2378 39.278 27.5836L39.4463 27.0789C39.0257 28.4247 39.6145 30.1911 40.7079 31.0322L40.7921 31.1163C41.8855 31.9574 42.1378 33.5556 41.2967 34.649L40.5397 35.7425C39.6986 36.8359 38.1005 37.0883 37.007 36.3313L36.9229 36.2471C35.7453 35.406 33.979 35.4901 32.8014 36.2471L33.222 35.9107C32.1285 36.7518 31.5397 38.4341 31.9603 39.7799V39.864C32.3808 41.2098 31.6238 42.6397 30.278 43.0602L29.0164 43.4808C27.6706 43.9014 26.2407 43.2285 25.8201 41.8827V41.7985C25.3995 40.4528 23.8855 39.4434 22.4556 39.4434H22.9603C21.5304 39.4434 20.1005 40.5369 19.5958 41.7985V41.9668ZM22.7079 28.5088C26.3248 28.5088 29.2687 25.5649 29.2687 21.9481C29.2687 18.3313 26.3248 15.3873 22.7079 15.3873C19.0911 15.3873 16.1472 18.3313 16.1472 21.9481C16.1472 25.5649 19.0911 28.5088 22.7079 28.5088Z" fill="#2F2C2F"/>
</svg>
