<svg width="62" height="64" viewBox="0 0 62 64" fill="none" xmlns="http://www.w3.org/2000/svg">
<path d="M48.9078 8.83695C43.723 3.38589 36.5237 0 28.5731 0C12.818 0 0 13.2864 0 29.618C0 37.8595 3.26684 45.3222 8.52551 50.6966C14.6221 57.1135 20.8533 64 33.1685 64C48.9232 64 61.7412 50.7131 61.7412 34.3815C61.7412 21.6341 55.1059 15.1575 48.9078 8.83695Z" fill="#2F2C2F"/>
<path d="M53.8898 29.618C53.8898 44.1119 42.5554 55.861 28.5735 55.861C14.5917 55.861 3.25635 44.1115 3.25635 29.618C3.25635 15.1246 14.5912 3.37555 28.5731 3.37555C42.555 3.37555 53.8898 15.1246 53.8898 29.618Z" fill="#B97B50"/>
<path d="M48.6325 29.618C48.6325 41.102 39.654 50.4141 28.5754 50.4141C17.4921 50.4141 8.51367 41.102 8.51367 29.618C8.51367 18.134 17.4967 8.82233 28.5754 8.82233C39.654 8.82233 48.6325 18.134 48.6325 29.618Z" fill="#F8A46C"/>
<path d="M25.6484 23.1096L21.5237 30.8265L27.3278 37.2773L35.0404 33.5487L34.0002 24.7973L25.6484 23.1096Z" fill="#2F2C2F"/>
<path d="M28.5749 8.82233C17.4966 8.82233 8.51318 18.1344 8.51318 29.618C8.51318 41.1015 17.4917 50.4141 28.5749 50.4141C39.6536 50.4141 48.6316 41.102 48.6316 29.618C48.6316 18.134 39.6536 8.82233 28.5749 8.82233ZM44.5708 31.8519L38.905 35.548L38.8823 42.488L40.7798 42.3832C39.3965 43.8068 37.7791 45.026 35.9138 45.9265C34.0485 46.8271 32.1047 47.3318 30.1654 47.5128L31.4658 46.0788L26.3196 41.635L19.9501 43.7551L20.6302 45.5886C17.3262 43.8261 14.5282 40.9779 12.8415 37.2245C12.768 37.0525 12.7131 36.8861 12.6442 36.715L14.3672 37.5483L16.8533 31.1135L12.938 25.4834L11.4495 26.7303C12.0929 22.6634 14.0824 18.8766 17.1375 16.0946L16.9031 18.0574L23.5842 18.5241L27.5361 12.9226L25.9278 11.8411C29.9532 11.2029 34.029 12.0606 37.4522 14.1658L35.5724 14.5418L37.2128 21.2675L43.5679 23.4346L44.0594 21.5246C44.1419 21.6914 44.2339 21.8395 44.3074 22.0058C45.9982 25.7588 46.3065 29.8126 45.484 33.5707L44.5708 31.8519Z" fill="#2F2C2F"/>
</svg>
