<svg width="64" height="64" viewBox="0 0 64 64" fill="none" xmlns="http://www.w3.org/2000/svg">
<path d="M50.6971 8.83695C45.3226 3.38589 37.86 0 29.6185 0C13.2869 0 0 13.2864 0 29.618C0 37.8595 3.38683 45.3222 8.83742 50.6966C15.1571 57.1135 21.6163 64 34.382 64C50.7131 64 64 50.7131 64 34.3815C64 21.6341 57.122 15.1575 50.6971 8.83695Z" fill="#2F2C2F"/>
<path d="M55.8614 29.618C55.8614 44.1119 44.1119 55.861 29.6189 55.861C15.1251 55.861 3.37598 44.1119 3.37598 29.618C3.37598 15.1246 15.1251 3.37555 29.6189 3.37555C44.1114 3.37555 55.8614 15.1246 55.8614 29.618Z" fill="#4C7F49"/>
<path d="M43.2574 14.9968L42.9378 36.6827L41.3934 47.2572C41.3206 47.7686 40.9187 48.1789 40.39 48.2978L32.9752 48.53L18.2985 48.3138C17.6226 48.3039 17.0615 47.8179 17.0008 47.1863L13.911 15.8696C13.8706 15.4612 14.0441 15.0655 14.3787 14.8032L23.5724 7.60373C23.8177 7.41479 24.1265 7.30998 24.4433 7.31421L36.2215 8.93336C36.5613 8.93806 36.8856 9.0659 37.1291 9.29244L43.2574 14.9968Z" fill="#8BCA89"/>
<path d="M46.8774 16.9158L44.6299 15.017L37.8666 9.3032C37.5977 9.07666 37.2401 8.94835 36.8655 8.94271L23.8831 7.30569C23.5339 7.30099 23.1936 7.40486 22.9234 7.59381L12.801 14.7801C12.4325 15.0414 12.2417 15.4367 12.2868 15.8456L15.7399 47.1683C15.8076 47.8 16.427 48.2865 17.172 48.2968L33.3489 48.5356L41.5199 48.3142C42.1018 48.1958 42.5445 47.7864 42.6239 47.275L44.3103 36.7028L47.2986 17.9691C47.3611 17.5841 47.2022 17.1922 46.8774 16.9158ZM33.5435 45.0914C33.5031 45.7475 32.8686 46.2641 32.0983 46.2612L19.4618 46.2763C18.7065 46.2791 18.0716 45.7879 18.0039 45.1478L14.7849 16.4514C14.7346 16.043 14.9306 15.6388 15.3037 15.3775L23.3957 9.71163C23.8991 9.36007 24.6234 9.33563 25.1634 9.66322L35.9067 16.1356C36.3142 16.3823 36.5445 16.7889 36.5229 17.2175L33.5435 45.0914Z" fill="#2F2C2F"/>
<path d="M28.6089 14.5512L32.5992 22.9426C32.6918 23.1372 32.9813 23.0944 33.0114 22.8824C33.8828 16.6869 31.9525 15.0701 28.8618 14.2513C28.6827 14.2039 28.5295 14.3848 28.6089 14.5512Z" fill="#2F2C2F"/>
<path d="M29.1705 42.7615L29.5371 38.4991L29.7063 36.629L28.9637 34.1596L30.3507 34.1253L29.0224 28.5078L30.3239 28.6328C31.0984 28.5797 31.8326 28.3189 32.5442 27.9011L30.6157 23.1268C29.7119 22.2897 28.7221 21.6538 27.6458 21.2285L27.4329 20.0422C28.888 18.6919 28.6239 17.6799 27.3079 16.8734C27.1626 16.7794 26.9967 16.7352 26.8299 16.7461C26.3171 16.6897 25.8358 16.6845 25.4377 16.8137C25.2418 16.8241 25.0495 16.9091 24.8954 17.0586C23.7316 18.2247 24.1185 19.2342 25.4669 20.1428L25.5943 21.4884C23.8759 21.744 22.6431 22.9684 21.6101 24.588L20.2626 22.9613L20.4482 21.6613L21.5128 21.2209L22.0171 20.225L21.6984 19.9214L20.7735 20.5155L20.3716 20.5235L19.4687 17.9737L18.8789 18.1166L19.1444 20.0361L18.0536 17.9347L17.5262 18.493L18.5283 20.3077L16.9152 18.7417L16.7719 19.4763L17.8773 20.9559L16.5054 19.9924L16.4805 20.6687L17.5323 22.1111L19.4034 25.7842C19.9655 26.5009 20.5845 27.0767 21.289 27.4503C21.9245 27.2252 22.4937 26.8332 23.0013 26.2655L23.538 27.7554L22.1614 32.7665L21.9621 33.652L23.1883 34.1944L22.5848 36.5932L23.5864 41.7534L22.0833 42.3625C22.0298 43.3378 22.6262 43.7561 23.6889 43.7763L25.5228 43.679L25.2178 37.7734L25.4805 34.5549L26.5578 34.5802L27.1401 37.6268L27.1448 43.9516L29.2612 44.2637C30.1956 44.3647 30.8879 44.2411 31.0778 43.6498C31.1464 43.2781 31.1219 42.997 30.9227 42.8748L29.1705 42.7615ZM29.46 24.0955L30.2449 26.6664L28.7738 26.7966C28.6112 25.841 28.889 24.9471 29.46 24.0955Z" fill="#2F2C2F"/>
<path d="M23.4668 15.5734C23.495 16.5449 22.679 17.3533 21.6441 17.3782C20.6092 17.4032 19.7472 16.6356 19.719 15.6632C19.6908 14.6922 20.5067 13.8843 21.5416 13.8594C22.5766 13.8344 23.4381 14.6015 23.4668 15.5734Z" fill="#2F2C2F"/>
</svg>
