<svg width="64" height="64" viewBox="0 0 64 64" fill="none" xmlns="http://www.w3.org/2000/svg">
<path d="M50.6971 8.83695C45.3226 3.38589 37.86 0 29.6185 0C13.2869 0 0 13.2864 0 29.618C0 37.8595 3.38636 45.3222 8.83742 50.6966C15.1571 57.1135 21.6163 64 34.382 64C50.7131 64 64 50.7131 64 34.3815C64 21.6341 57.122 15.1575 50.6971 8.83695Z" fill="#2F2C2F"/>
<path d="M55.8614 29.618C55.8614 44.1119 44.1124 55.861 29.6189 55.861C15.1255 55.861 3.37598 44.1119 3.37598 29.618C3.37598 15.1246 15.1255 3.37555 29.6189 3.37555C44.1119 3.37555 55.8614 15.1246 55.8614 29.618Z" fill="#BA912E"/>
<path d="M51.8232 28.6203H42.4933L48.9332 21.4749H39.0801L43.9601 15.0373H36.0439L39.3964 10.6141H19.8402L23.1932 15.0373H15.2769L20.1569 21.4749H10.3034L16.7433 28.6203H7.41382V31.0803H16.7433L10.3034 38.2252H19.8049L15.2769 44.1989H23.1932L19.8402 48.6221H39.3964L36.0439 44.1989H43.9601L39.4317 38.2252H48.9332L42.4933 31.0803H51.8232V28.6203Z" fill="#2F2C2F"/>
<path d="M22.8664 38.157L26.4328 34.0018H19.3931L22.5863 30.873H18.5146V29.032H22.5863L19.3931 25.9022H26.7105L22.8664 21.4241H36.37L32.5263 25.9022H39.8438L36.6501 29.032H40.7227V30.873H36.6501L39.8438 34.0018H32.8031L36.37 38.157H22.8664Z" fill="#FBC111"/>
<path d="M33.4411 29.1213H30.5473L32.3845 26.4474H26.737L28.5752 29.1213H25.6809V30.5562H28.6198L26.737 33.2954H32.3845L30.5022 30.5562H33.4411V29.1213Z" fill="#2F2C2F"/>
</svg>
