<svg width="62" height="64" viewBox="0 0 62 64" fill="none" xmlns="http://www.w3.org/2000/svg">
<path d="M48.9075 8.83685C43.7228 3.38636 36.5232 0 28.5727 0C12.8178 0 0 13.2867 0 29.618C0 37.8595 3.26684 45.3224 8.52541 50.6968C14.6215 57.1136 20.8531 63.9991 33.1681 63.9991C48.9229 63.9991 61.7412 50.7133 61.7412 34.3811C61.7412 21.6348 55.106 15.1579 48.9075 8.83685Z" fill="#2F2C2F"/>
<path d="M53.8893 29.618C53.8893 44.1114 42.555 55.8609 28.5726 55.8609C14.5911 55.8609 3.25635 44.1119 3.25635 29.618C3.25635 15.125 14.5906 3.37506 28.5726 3.37506C42.555 3.37506 53.8893 15.125 53.8893 29.618Z" fill="#B15050"/>
<path d="M44.4883 45.8221L38.9761 43.9274L36.8335 49.5221L29.9529 34.2266L37.6072 30.5266L44.4883 45.8221Z" fill="#2F2C2F"/>
<path d="M32.2051 35.076L36.7878 32.8607L41.2917 42.8723L37.9918 41.7379L36.7085 45.0876L32.2051 35.076Z" fill="#F06B6C"/>
<path d="M19.3931 49.5221L17.2501 43.9274L11.7388 45.8221L18.619 30.5266L26.2738 34.2266L19.3931 49.5221Z" fill="#2F2C2F"/>
<path d="M18.235 41.7384L14.9351 42.8728L19.439 32.8607L24.0217 35.076L19.5182 45.0876L18.235 41.7384Z" fill="#F06B6C"/>
<path d="M37.7005 34.7783L34.5388 35.5841C34.455 35.6057 34.3775 35.6479 34.3127 35.7071L31.8744 37.944C31.7435 38.0642 31.5636 38.1102 31.3933 38.0666L28.2325 37.2571C28.1482 37.235 28.0613 37.235 27.9775 37.2571L24.8157 38.0628C24.6454 38.1065 24.4656 38.0595 24.3342 37.9393L21.8986 35.7C21.8342 35.6404 21.7568 35.5982 21.6725 35.577L18.5117 34.7671C18.3414 34.7234 18.2027 34.5961 18.1407 34.4262L16.9879 31.2694C16.9575 31.1858 16.9077 31.1107 16.8434 31.052L14.4073 28.8123C14.2759 28.6916 14.2107 28.5122 14.2315 28.3319L14.6261 24.9817C14.6365 24.8935 14.6261 24.8028 14.5953 24.7193L13.4424 21.5625C13.3804 21.393 13.403 21.2019 13.5027 21.0526L15.354 18.2757C15.4025 18.2029 15.4342 18.1179 15.4446 18.0292L15.8387 14.679C15.86 14.4982 15.9655 14.3404 16.1204 14.2568L19.0045 12.69C19.0806 12.6482 19.1463 12.5881 19.1952 12.5144L21.0461 9.73793C21.1462 9.58815 21.3097 9.49941 21.485 9.49941L24.741 9.50128C24.827 9.50128 24.9126 9.47968 24.9887 9.43789L27.8728 7.87055C28.0277 7.78697 28.213 7.78697 28.3679 7.87149L31.2502 9.44165C31.3267 9.48344 31.4114 9.50504 31.498 9.50504L34.7539 9.50692C34.9292 9.50739 35.0932 9.59613 35.1924 9.74545L37.0405 12.5242C37.0895 12.5984 37.1551 12.6585 37.2317 12.7003L40.114 14.2705C40.2689 14.355 40.3735 14.5132 40.3948 14.693L40.7853 18.0433C40.7957 18.1325 40.8265 18.2175 40.8759 18.2912L42.7235 21.0695C42.8232 21.2188 42.8454 21.4099 42.7833 21.5794L41.6269 24.7343C41.5966 24.8183 41.5852 24.9085 41.5961 24.9972L41.9866 28.3484C42.0079 28.5287 41.9417 28.7076 41.8108 28.8278L39.3725 31.0652C39.3081 31.1248 39.2583 31.199 39.2275 31.283L38.0715 34.4379C38.0095 34.6079 37.8704 34.7351 37.7005 34.7783Z" fill="#2F2C2F"/>
<path d="M36.1801 32.9701L33.5732 33.6345C33.488 33.6566 33.4092 33.6998 33.3426 33.7599L31.3328 35.6038C31.1987 35.7268 31.0157 35.7733 30.8418 35.7292L28.2363 35.062C28.1507 35.0399 28.061 35.0399 27.9763 35.062L25.3694 35.7264C25.1959 35.7705 25.0129 35.7231 24.8788 35.6005L22.8708 33.7543C22.8051 33.6937 22.7258 33.6505 22.6407 33.628L20.0347 32.9612C19.8612 32.9166 19.7199 32.787 19.6565 32.6137L18.7062 30.0115C18.6749 29.9261 18.6246 29.8495 18.5585 29.7894L16.5505 27.9432C16.4168 27.8202 16.3498 27.637 16.3711 27.4534L16.6959 24.6911C16.7067 24.601 16.6959 24.508 16.6651 24.4235L15.7143 21.8217C15.6513 21.6484 15.674 21.4541 15.7754 21.3015L17.3015 19.0124C17.3518 18.9378 17.383 18.8514 17.3939 18.7603L17.7191 15.9989C17.7404 15.8148 17.8478 15.6542 18.0059 15.5678L20.3835 14.2756C20.4614 14.2339 20.5285 14.1723 20.5783 14.0977L22.1044 11.8087C22.2058 11.6556 22.373 11.565 22.5519 11.565L25.2358 11.5668C25.3237 11.5668 25.4106 11.5448 25.4885 11.502L27.8657 10.2098C28.0243 10.1244 28.2132 10.1244 28.3713 10.2108L30.7471 11.5053C30.825 11.5476 30.9115 11.5701 30.9999 11.5701L33.6842 11.5715C33.8631 11.5715 34.0303 11.6626 34.1313 11.8152L35.6546 14.1061C35.7049 14.1813 35.7715 14.2428 35.8494 14.285L38.2257 15.5796C38.3838 15.6655 38.4911 15.827 38.5124 16.0106L38.8345 18.773C38.8449 18.8636 38.8766 18.9504 38.9264 19.0256L40.4502 21.316C40.5513 21.4686 40.5744 21.663 40.5109 21.8358L39.5579 24.4366C39.5266 24.5221 39.5158 24.6141 39.5266 24.7038L39.8487 27.4661C39.87 27.6506 39.8029 27.8333 39.6693 27.9559L37.659 29.8002C37.5933 29.8608 37.5426 29.9369 37.5109 30.0223L36.5578 32.6236C36.4944 32.7964 36.3536 32.9255 36.1801 32.9701Z" fill="#F06B6C"/>
<path d="M37.9086 22.9458C37.9086 17.3384 33.5233 12.7923 28.1135 12.7923C22.7045 12.7923 18.3184 17.3384 18.3184 22.9458C18.3184 28.5526 22.7045 33.0992 28.1135 33.0992C33.5233 33.0992 37.9086 28.5531 37.9086 22.9458Z" fill="#2F2C2F"/>
<path d="M25.8208 17.3563C24.0234 19.2307 23.8187 22.1856 25.3389 24.3079L24.2341 25.4527L22.8865 24.0553C22.5988 23.7571 22.1327 23.7571 21.8446 24.0553C21.557 24.3539 21.557 24.8366 21.8446 25.1357L23.1922 26.5326L22.0879 27.6774C21.8002 27.976 21.8002 28.4596 22.0879 28.7578C22.376 29.0564 22.8421 29.0564 23.1302 28.7578L24.2345 27.613L25.5826 29.0099C25.8702 29.3086 26.3368 29.3086 26.6244 29.0099C26.912 28.7113 26.912 28.2282 26.6244 27.93L25.2759 26.5326L26.3807 25.3874C28.6519 27.1501 31.8721 26.6702 33.5726 24.3159C35.2726 21.9607 34.8096 18.6236 32.538 16.8609C30.4933 15.2739 27.635 15.4856 25.8281 17.3568L25.8208 17.3563ZM32.0447 23.8097C30.6133 25.2916 28.2945 25.2897 26.864 23.8064C25.4344 22.3227 25.4358 19.9181 26.8672 18.4358C28.2977 16.9553 30.6142 16.9553 32.0447 18.4358C33.4743 19.921 33.4743 22.325 32.0447 23.8097Z" fill="#F06B6C"/>
</svg>
