<svg width="27" height="41" viewBox="0 0 27 41" fill="none" xmlns="http://www.w3.org/2000/svg">
<path d="M3.54957 1.97383C3.9375 1.81811 4.32543 1.68185 4.71336 1.56505C5.10129 1.44826 5.48922 1.31199 5.87715 1.15627C6.03233 1.11734 6.1681 1.07841 6.28448 1.03947C6.43965 1.00054 6.59483 0.981078 6.75 0.981078C7.13793 1.02001 7.44828 1.1952 7.68103 1.50665C7.95259 1.81811 8.18534 2.12956 8.37931 2.44101C9.03879 3.5311 9.71767 4.62118 10.4159 5.71127C11.153 6.76242 11.9095 7.79411 12.6853 8.80633C12.7629 8.92313 12.8405 9.03992 12.9181 9.15672C13.0345 9.27351 13.1509 9.37084 13.2672 9.4487C13.6164 9.5655 13.9849 9.52657 14.3728 9.33191C14.6444 9.17618 14.9159 8.92313 15.1875 8.57274C16.0797 7.40479 16.7586 6.13952 17.2241 4.77691C17.7284 3.4143 18.2522 2.0517 18.7953 0.689088C18.8728 0.572294 18.931 0.474965 18.9698 0.397101C19.0086 0.280308 19.0862 0.182979 19.2026 0.105114C19.3966 -0.0116793 19.6487 -0.0311449 19.9591 0.0467173C20.5022 0.124582 21.0259 0.221911 21.5302 0.338704C22.0733 0.4555 22.6164 0.552829 23.1595 0.630691C23.6638 0.708556 24.1487 0.786419 24.6142 0.864281C25.1185 0.942146 25.6034 1.07841 26.069 1.27306C26.3017 1.38986 26.4763 1.52612 26.5927 1.68185C26.6703 1.75971 26.7091 1.9349 26.7091 2.20742C26.7091 2.6746 26.6509 3.14178 26.5345 3.60896C26.4181 4.07614 26.2823 4.52385 26.1272 4.9521C25.6228 6.39257 25.0991 7.81357 24.556 9.21511C24.0517 10.5777 23.4892 11.9403 22.8685 13.3029C22.4418 14.1984 22.0345 15.0743 21.6466 15.9308C21.2974 16.7873 20.9677 17.6633 20.6573 18.5587C20.5797 18.8702 20.5022 19.2011 20.4246 19.5515C20.347 19.8629 20.3276 20.1938 20.3664 20.5442C20.4052 20.9725 20.5216 21.3812 20.7155 21.7706C21.4914 23.9897 22.2478 26.1893 22.9849 28.3695C23.722 30.5107 24.5366 32.6714 25.4289 34.8516C25.6228 35.2409 25.7974 35.6302 25.9526 36.0195C26.1466 36.3699 26.3017 36.7592 26.4181 37.1875C26.5345 37.5379 26.6509 37.8882 26.7672 38.2386C26.9224 38.5501 27 38.9005 27 39.2898C27 39.3677 26.9612 39.4845 26.8836 39.6402C26.8448 39.718 26.7478 39.8348 26.5927 39.9906C25.9332 40.4188 25.0797 40.7108 24.0323 40.8665C23.0237 41.0222 22.1703 40.886 21.472 40.4577C21.1228 40.2631 20.8125 40.01 20.5409 39.6986C20.3082 39.3871 20.0754 39.0757 19.8427 38.7642C19.222 37.9856 18.6595 37.168 18.1552 36.3115C17.6509 35.455 17.1853 34.5791 16.7586 33.6836C16.681 33.489 16.5841 33.3138 16.4677 33.1581C16.3901 32.9634 16.2737 32.7882 16.1185 32.6325C15.847 32.2821 15.4978 32.1653 15.0711 32.2821C14.8772 32.321 14.6638 32.4573 14.431 32.6909C13.7328 33.3527 13.0733 34.0535 12.4526 34.7932C11.8707 35.5329 11.2888 36.2921 10.7069 37.0707C10.125 37.8104 9.50431 38.5501 8.84483 39.2898C8.57328 39.5623 8.28233 39.8932 7.97198 40.2825C7.66164 40.6329 7.3125 40.8471 6.92457 40.9249C6.61422 41.0417 6.28448 41.0222 5.93534 40.8665C4.84914 40.6329 3.82112 40.2436 2.85129 39.6986C1.92026 39.1146 1.06681 38.4333 0.290948 37.6547C0.213362 37.5768 0.155172 37.4989 0.116379 37.4211C0.0775862 37.3432 0.0387931 37.2459 0 37.1291C0 37.0123 0.0387931 36.8371 0.116379 36.6035C0.50431 35.4745 1.00862 34.4428 1.62931 33.5084C2.28879 32.5741 2.92888 31.6008 3.54957 30.5886C4.79095 28.6031 5.91595 26.4813 6.92457 24.2233C7.07974 23.9118 7.19612 23.6003 7.27371 23.2889C7.39009 22.9385 7.46767 22.5881 7.50647 22.2377C7.54526 21.7316 7.46767 21.245 7.27371 20.7778C7.11853 20.3106 6.94397 19.8434 6.75 19.3763C5.97414 17.7022 5.21767 16.0476 4.4806 14.4125C3.78233 12.7384 3.08405 11.0449 2.38578 9.33191C2.11422 8.67007 1.88147 8.00823 1.6875 7.3464C1.49353 6.68456 1.35776 6.00325 1.28017 5.30249C1.24138 4.67958 1.28017 4.09561 1.39655 3.55056C1.51293 2.96659 1.88147 2.55781 2.50216 2.32422L3.54957 1.97383Z" fill="#2F2C2F"/>
</svg>
