<svg width="14" height="14" viewBox="0 0 14 14" fill="none" xmlns="http://www.w3.org/2000/svg">
<path d="M2.33331 7.00001H1.66665V12.3333C1.66665 12.687 1.80712 13.0261 2.05717 13.2762C2.30722 13.5262 2.64636 13.6667 2.99998 13.6667H6.33331V7.00001H2.33331ZM11 7.00001H7.66665V13.6667H11C11.3536 13.6667 11.6927 13.5262 11.9428 13.2762C12.1928 13.0261 12.3333 12.687 12.3333 12.3333V7.00001H11ZM11.5273 3.66668C11.6251 3.34253 11.6721 3.0052 11.6666 2.66668C11.6666 1.38001 10.62 0.333344 9.33331 0.333344C8.25198 0.333344 7.52998 1.32134 7.06398 2.39001C6.60465 1.38001 5.84598 0.333344 4.66665 0.333344C3.37998 0.333344 2.33331 1.38001 2.33331 2.66668C2.33331 3.06401 2.38598 3.39268 2.47265 3.66668H0.333313V6.33334H6.33331V5.00001H7.66665V6.33334H13.6666V3.66668H11.5273ZM3.66665 2.66668C3.66665 2.11534 4.11531 1.66668 4.66665 1.66668C5.25865 1.66668 5.80931 2.68334 6.13198 3.66668H4.33331C4.08398 3.66668 3.66665 3.66668 3.66665 2.66668ZM9.33331 1.66668C9.88465 1.66668 10.3333 2.11534 10.3333 2.66668C10.3333 3.66668 9.91598 3.66668 9.66665 3.66668H8.01531C8.35531 2.61601 8.84931 1.66668 9.33331 1.66668Z" fill="white"/>
</svg>
