<svg width="37" height="43" viewBox="0 0 37 43" fill="none" xmlns="http://www.w3.org/2000/svg">
<path fill-rule="evenodd" clip-rule="evenodd" d="M9.72618 2.10545C10.1513 0.647365 11.6779 -0.190039 13.136 0.235053L34.2567 6.39263C35.7148 6.81773 36.5522 8.34434 36.1271 9.80242L27.1706 40.5234C26.7455 41.9815 25.2189 42.8189 23.7608 42.3938L2.64009 36.2363C1.18201 35.8112 0.344605 34.2846 0.769697 32.8265L9.72618 2.10545ZM12.7161 1.6751C12.0534 1.48188 11.3594 1.86252 11.1662 2.52528L2.20975 33.2463C2.01652 33.9091 2.39716 34.603 3.05992 34.7962L24.1806 40.9538C24.8434 41.147 25.5373 40.7664 25.7305 40.1036L34.687 9.38258C34.8802 8.71982 34.4996 8.02591 33.8368 7.83268L12.7161 1.6751Z" fill="#0080B8"/>
<path d="M19.5732 1.04667C21.3226 1.5211 22.7914 1.32661 23.8051 0.98139C24.4605 0.758152 25.3496 1.01736 25.7824 1.55787C26.4517 2.39372 27.5858 3.34709 29.3162 3.88718C32.7171 4.9487 32.2212 6.16929 31.9767 7.00809C31.7321 7.8469 31.5643 9.02308 29.3894 9.1591C27.6495 9.26791 24.3145 8.3563 22.8645 7.88689C21.3894 7.50352 18.0871 6.48007 16.6783 5.45327C14.9172 4.16977 15.4077 3.08764 15.6523 2.24883C15.8968 1.41003 16.1346 0.114199 19.5732 1.04667Z" fill="#0080B8"/>
<path fill-rule="evenodd" clip-rule="evenodd" d="M25.0036 16.8303C25.3693 17.2442 25.3303 17.8761 24.9165 18.2419L16.0481 26.0799L11.5731 21.5476C11.185 21.1546 11.189 20.5215 11.582 20.1335C11.975 19.7454 12.6082 19.7494 12.9962 20.1424L16.1417 23.328L23.592 16.7433C24.0059 16.3775 24.6378 16.4165 25.0036 16.8303Z" fill="#0080B8"/>
</svg>
