<svg width="47" height="23" viewBox="0 0 47 23" fill="none" xmlns="http://www.w3.org/2000/svg">
<path fill-rule="evenodd" clip-rule="evenodd" d="M19.0881 0L25.9866 16.7533L29.323 8.41235H43V10.4123H30.677L26.0134 22.0714L18.9119 4.82469L16.118 10.4123H3.5V8.41235H14.882L19.0881 0Z" fill="#0080B8"/>
<path d="M8 9.41234C8 11.6215 6.20914 13.4123 4 13.4123C1.79086 13.4123 0 11.6215 0 9.41234C0 7.2032 1.79086 5.41234 4 5.41234C6.20914 5.41234 8 7.2032 8 9.41234Z" fill="#0080B8"/>
<path d="M47 9.41234C47 11.6215 45.2091 13.4123 43 13.4123C40.7909 13.4123 39 11.6215 39 9.41234C39 7.2032 40.7909 5.41234 43 5.41234C45.2091 5.41234 47 7.2032 47 9.41234Z" fill="#0080B8"/>
</svg>
