<svg width="45" height="44" viewBox="0 0 45 44" fill="none" xmlns="http://www.w3.org/2000/svg">
<path d="M31 20C31 24.4183 27.4183 28 23 28C18.5817 28 15 24.4183 15 20C15 15.5817 18.5817 12 23 12C27.4183 12 31 15.5817 31 20Z" fill="#009988"/>
<path d="M37 4.5C37 6.98528 34.9853 9 32.5 9C30.0147 9 28 6.98528 28 4.5C28 2.01472 30.0147 0 32.5 0C34.9853 0 37 2.01472 37 4.5Z" fill="#009988"/>
<path d="M45 28.5C45 30.9853 42.9853 33 40.5 33C38.0147 33 36 30.9853 36 28.5C36 26.0147 38.0147 24 40.5 24C42.9853 24 45 26.0147 45 28.5Z" fill="#009988"/>
<path d="M16 7C16 9.20914 14.2091 11 12 11C9.79086 11 8 9.20914 8 7C8 4.79086 9.79086 3 12 3C14.2091 3 16 4.79086 16 7Z" fill="#009988"/>
<path d="M6 22C6 23.6569 4.65685 25 3 25C1.34315 25 0 23.6569 0 22C0 20.3431 1.34315 19 3 19C4.65685 19 6 20.3431 6 22Z" fill="#009988"/>
<path d="M19 38C19 41.3137 16.3137 44 13 44C9.68629 44 7 41.3137 7 38C7 34.6863 9.68629 32 13 32C16.3137 32 19 34.6863 19 38Z" fill="#009988"/>
<path fill-rule="evenodd" clip-rule="evenodd" d="M23.2751 17.8369L31.6288 3.00916L33.3713 3.99084L24.3277 20.0432L41.9161 28.0907L41.0839 29.9093L23.3425 21.7919L13.3712 39.4908L11.6288 38.5092L21.1359 21.6339L2.57325 22.9973L2.42675 21.0027L22.1512 19.554L10.2788 7.1927L11.7212 5.8073L23.2751 17.8369Z" fill="#009988"/>
</svg>
