<svg width="14" height="15" viewBox="0 0 14 15" fill="none" xmlns="http://www.w3.org/2000/svg">
<path d="M11.0207 10.578L13.876 13.4327L12.9327 14.376L10.078 11.5207C9.01587 12.3722 7.69471 12.8353 6.33337 12.8333C3.02137 12.8333 0.333374 10.1453 0.333374 6.83334C0.333374 3.52134 3.02137 0.833344 6.33337 0.833344C9.64537 0.833344 12.3334 3.52134 12.3334 6.83334C12.3353 8.19468 11.8722 9.51584 11.0207 10.578ZM9.68337 10.0833C10.5294 9.21327 11.002 8.04696 11 6.83334C11 4.25468 8.91137 2.16668 6.33337 2.16668C3.75471 2.16668 1.66671 4.25468 1.66671 6.83334C1.66671 9.41134 3.75471 11.5 6.33337 11.5C7.54699 11.5019 8.7133 11.0294 9.58337 10.1833L9.68337 10.0833Z" fill="#0080B8"/>
</svg>
