<svg width="20" height="18" viewBox="0 0 20 18" fill="none" xmlns="http://www.w3.org/2000/svg">
<path d="M3.76669 3.945L1.16086 1.34L2.34003 0.160835L18.8392 16.6608L17.66 17.8392L14.9017 15.0808C13.436 16.0105 11.7356 16.5028 10 16.5C5.50669 16.5 1.76836 13.2667 0.984192 9C1.34255 7.05893 2.31888 5.28575 3.76753 3.945H3.76669ZM12.2975 12.4767L11.0775 11.2567C10.6109 11.4799 10.0865 11.5529 9.57664 11.4657C9.06677 11.3784 8.59653 11.1351 8.23075 10.7693C7.86497 10.4035 7.62167 9.93326 7.53437 9.42339C7.44708 8.91352 7.5201 8.38913 7.74336 7.9225L6.52336 6.7025C5.99312 7.50374 5.75608 8.46361 5.85238 9.41958C5.94868 10.3755 6.3724 11.2688 7.05179 11.9482C7.73118 12.6276 8.62449 13.0513 9.58045 13.1476C10.5364 13.2439 11.4963 13.0069 12.2975 12.4767ZM6.64503 2.13334C7.68419 1.725 8.81669 1.5 10 1.5C14.4934 1.5 18.2317 4.73334 19.0159 9C18.7605 10.3881 18.1866 11.698 17.3392 12.8267L14.1225 9.61C14.2181 8.96635 14.1615 8.30926 13.9575 7.69138C13.7534 7.0735 13.4074 6.51201 12.9473 6.05189C12.4872 5.59177 11.9257 5.24581 11.3078 5.04173C10.6899 4.83765 10.0328 4.78112 9.38919 4.87667L6.64503 2.13417V2.13334Z" fill="#494642"/>
</svg>
